<?xml version="1.0" encoding="UTF-8" standalone="no"?>
<!DOCTYPE svg PUBLIC "-//W3C//DTD SVG 1.1//EN" "http://www.w3.org/Graphics/SVG/1.1/DTD/svg11.dtd">
<svg width="100%" height="100%" viewBox="0 0 396 457" version="1.1" xmlns="http://www.w3.org/2000/svg" xmlns:xlink="http://www.w3.org/1999/xlink" xml:space="preserve" xmlns:serif="http://www.serif.com/" style="fill-rule:evenodd;clip-rule:evenodd;stroke-linejoin:round;stroke-miterlimit:2;">
    <g transform="matrix(1,0,0,1,-122.301,-11.9628)">
        <g transform="matrix(1,0,0,1,13.1961,3.45705)">
            <path class="country-path" d="M346.101,28.405C347.916,29.272 349.632,30.397 349.108,31.254C348.476,32.287 348.626,32.297 349.87,31.306C350.721,30.629 351.717,30.368 352.082,30.728C353.008,31.639 352.909,30.611 351.794,27.725C351.062,25.832 351.193,25.132 352.362,24.69C353.198,24.375 353.641,23.733 353.346,23.264C353.051,22.794 353.427,21.58 354.182,20.565C355.396,18.931 355.756,18.885 357.321,20.163C358.926,21.473 359.027,21.413 358.417,19.521C357.988,18.193 358.301,16.981 359.28,16.182C360.125,15.492 360.816,13.717 360.816,12.238C360.816,8.997 363.488,8.543 364.481,11.615C365.068,13.429 365.224,13.474 365.757,11.982C366.185,10.784 366.8,10.546 367.838,11.177C369.112,11.952 369.088,12.314 367.655,13.872C366.151,15.507 364.405,19.089 363.877,21.622C363.764,22.168 363.248,23.115 362.732,23.727C362.193,24.366 362.155,25.801 362.643,27.099C363.474,29.307 363.539,29.282 365.52,25.986C366.635,24.132 368.845,20.019 370.431,16.847C372.017,13.675 373.68,10.857 374.127,10.586C375.418,9.801 375.068,13.655 373.729,14.972C372.816,15.871 372.81,16.163 373.703,16.163C374.479,16.163 374.682,17.179 374.291,19.102C373.717,21.929 373.788,21.997 376.166,20.893C377.93,20.074 378.638,18.943 378.638,16.944C378.638,15.332 379.459,13.549 380.572,12.743C382.378,11.435 382.389,11.299 380.74,10.67C379.769,10.299 378.975,9.709 378.977,9.358C378.98,8.361 385.371,8.179 386.922,9.132C388.747,10.254 387.472,12.194 384.908,12.194C383.764,12.194 383.172,12.642 383.541,13.229C383.899,13.799 383.586,14.989 382.844,15.873C381.634,17.316 381.729,17.359 383.766,16.291C386.285,14.971 386.539,15.369 384.992,18.213C384.418,19.269 384.304,20.126 384.74,20.118C386.493,20.084 387.822,18.461 388.995,14.923C390.203,11.276 393.098,9.723 393.098,12.721C393.098,13.557 393.892,14.529 394.863,14.882C395.834,15.234 396.962,16.002 397.37,16.587C397.873,17.31 398.116,17.263 398.126,16.443C398.135,15.768 398.823,15.49 399.681,15.814C400.947,16.292 400.992,16.671 399.933,17.954C398.83,19.29 398.92,19.411 400.564,18.804C401.876,18.319 403.103,18.752 404.448,20.172C405.53,21.315 406.256,22.348 406.062,22.468C405.867,22.589 403.82,23.931 401.513,25.452C397.419,28.15 397.238,28.177 394.083,26.572C389.507,24.244 387.501,26.298 391.933,28.774C393.685,29.753 394.914,31.089 394.664,31.744C394.392,32.454 394.798,32.711 395.671,32.382C397.311,31.763 397.693,33.569 396.124,34.523C395.569,34.861 395.116,35.612 395.116,36.192C395.116,36.835 395.737,36.74 396.706,35.949C398.023,34.873 398.453,34.895 399.212,36.076C400.774,38.504 400.271,39.874 397.251,41.41C395.602,42.249 394.049,44.041 393.665,45.549C393.184,47.434 392.673,47.9 391.909,47.148C391.146,46.397 391.465,45.215 393.006,43.086C395.977,38.981 394.993,35.934 389.139,31.112L384.388,27.199L381.429,29.133C379.801,30.198 376.722,31.54 374.585,32.116C372.448,32.693 370.939,33.399 371.231,33.687C371.523,33.974 370.857,36.284 369.752,38.82C368.429,41.858 367.949,44.509 368.346,46.592C368.845,49.209 368.587,49.865 366.842,50.41C365.683,50.772 364.319,52.146 363.809,53.464C362.693,56.352 362.169,56.397 358.363,53.929C355.438,52.032 355.375,52.033 352.64,53.949C348.842,56.609 345.911,55.146 342.269,48.771C339.753,44.368 339.125,43.86 336.882,44.414C335.486,44.759 333.684,45.689 332.88,46.481C332.075,47.273 330.541,47.92 329.471,47.92C327.201,47.92 327.168,48.05 328.638,51.222C329.48,53.04 329.43,54.197 328.431,55.982C327.705,57.28 327.233,59.122 327.382,60.078C327.53,61.033 327.412,61.814 327.118,61.814C326.524,61.814 319.952,59.096 317.144,57.69C314.492,56.362 313.403,57.502 313.386,61.625C313.365,66.719 312.02,68.615 309.513,67.087C307.901,66.105 307.245,66.27 305.563,68.08C304.453,69.273 303.218,71.366 302.817,72.731C302.417,74.096 301.174,75.925 300.055,76.797C298.106,78.316 298.093,78.491 299.752,80.981C301.437,83.511 301.398,82.597 298.301,87.922C296.551,90.931 294.675,93.663 294.131,93.994C293.588,94.324 293.437,95.506 293.796,96.619C294.522,98.869 292.909,100.342 289.694,100.367C287.874,100.38 287.653,101.128 287.436,107.999C287.247,114 286.575,116.923 284.271,121.767C281.42,127.76 281.394,127.959 283.25,129.523C286.519,132.276 285.029,136.833 281.245,135.652C275.545,133.872 269.636,140.915 270.037,149.01C270.078,149.829 270.039,151.838 269.951,153.476C269.862,155.113 269.866,157.569 269.959,158.934C270.052,160.299 270.218,163.954 270.327,167.057C270.483,171.469 271.022,173.155 272.797,174.787C274.045,175.936 275.066,177.268 275.066,177.748C275.066,179.758 273.745,181.76 272.417,181.76C271.348,181.76 271.186,182.44 271.768,184.489C273.303,189.888 272.463,195.825 269.889,197.772C268.575,198.766 267.896,199.589 268.38,199.601C268.864,199.613 268.731,200.25 268.085,201.017C267.438,201.783 267.179,203.469 267.509,204.762C267.839,206.055 267.66,208.219 267.112,209.571C266.487,211.11 266.091,211.42 266.051,210.399C266.016,209.503 264.852,208.49 263.465,208.147C260.911,207.517 260.6,206.669 260.791,200.863C260.849,199.09 260.509,197.638 260.035,197.638C258.147,197.638 257.09,200.329 257.578,203.892C258.1,207.7 256.525,211.037 254.722,209.941C254.201,209.624 252.951,210.299 251.944,211.441C250.937,212.583 249.573,213.517 248.912,213.517C248.25,213.517 247.998,213.976 248.35,214.537C249.013,215.592 242.885,221.886 242.021,221.036C241.754,220.773 240.876,221.207 240.07,222C238.533,223.512 230.169,224.063 231.093,222.591L231.094,222.593C231.387,222.126 229.825,220.318 227.622,218.577C225.12,216.599 223.623,214.59 223.632,213.224C223.645,211.449 223.831,211.318 224.626,212.527C225.394,213.696 225.607,213.723 225.619,212.653C225.632,211.511 225.92,211.506 227.4,212.62C228.371,213.352 228.811,213.541 228.377,213.042C227.944,212.542 228.625,211.548 229.89,210.833C232.105,209.582 232.077,209.555 229.165,210.118C226.854,210.564 226.496,210.452 227.652,209.645C228.484,209.063 228.711,208.566 228.157,208.54C227.602,208.515 228.029,207.838 229.106,207.037C230.518,205.986 230.659,205.571 229.61,205.548C228.514,205.524 228.603,205.183 229.975,204.16C231.263,203.199 231.423,202.681 230.522,202.386C228.861,201.841 223.446,204.504 224.099,205.545C224.376,205.986 223.7,206.579 222.597,206.863C220.21,207.476 219.97,206.171 222.139,204.378C222.99,203.674 224.298,202.562 225.045,201.905C225.792,201.249 226.619,200.925 226.884,201.185C227.148,201.445 227.997,200.894 228.769,199.959C229.992,198.481 229.966,198.337 228.569,198.851C227.687,199.176 226.325,199.043 225.543,198.556C224.761,198.069 224.616,197.664 225.22,197.655C225.825,197.647 226.901,196.412 227.613,194.911C228.826,192.352 228.643,191.296 227.31,192.528C224.999,194.664 224.865,194.68 224.384,192.871C224.107,191.828 224.3,190.238 224.812,189.338C225.809,187.586 225.016,185.377 223.682,186.188C223.24,186.457 222.096,185.827 221.141,184.789C219.462,182.964 219.565,182.879 224.285,182.229C232.059,181.156 227.23,180.303 223.869,180.356C217.839,180.452 217.055,179.55 221.851,178.037C224.867,177.085 224.927,176.988 222.608,176.831C220.278,176.673 220.24,176.595 222.104,175.807C223.213,175.338 223.527,174.923 222.801,174.884C222.074,174.846 221.761,174.368 222.104,173.822C222.446,173.276 221.964,172.83 221.031,172.83C219.637,172.83 219.559,172.564 220.59,171.341C222.264,169.358 224.292,169.459 225.554,171.589C226.119,172.544 226.596,172.793 226.613,172.142C226.629,171.491 227.476,171.117 228.495,171.31C229.513,171.502 230.988,171.26 231.773,170.772C233.445,169.731 233.036,169.648 222.737,168.953C221.595,168.876 221.582,168.587 222.662,167.308C223.544,166.262 224.819,165.961 226.568,166.385C228.623,166.884 228.909,166.759 227.939,165.789C226.976,164.825 227.083,164.286 228.444,163.269C231.199,161.21 232.694,161.689 232.728,164.642C232.759,167.233 232.834,167.276 234.215,165.48C235.512,163.795 235.445,163.397 233.597,161.821C232.457,160.848 230.88,160.295 230.092,160.593C229.305,160.89 228.661,160.576 228.661,159.895C228.661,158.988 230.207,158.802 234.462,159.199C237.652,159.496 239.388,159.413 238.318,159.015C235.709,158.042 238.207,157.056 242.19,157.486C244.314,157.716 244.762,157.507 243.92,156.679C242.256,155.042 242.532,153.525 244.241,154.92C245.434,155.894 245.668,155.737 245.539,154.049C245.452,152.916 244.684,151.953 243.831,151.91C242.978,151.867 243.621,151.353 245.26,150.768C248.863,149.481 252.935,146.034 250.852,146.034C249.933,146.034 250.123,145.558 251.412,144.63C253.533,143.105 255.122,144.285 254.185,146.689C253.84,147.571 254.466,148.014 256.043,148.004C257.949,147.992 258.121,147.798 256.908,147.027C255.76,146.297 256.185,146.061 258.673,146.049C261.236,146.038 261.952,145.615 261.952,144.116C261.952,143.061 262.811,141.93 263.861,141.602C265.116,141.21 265.721,140.168 265.626,138.559C265.451,135.567 263.946,135.448 260.803,138.178C259.079,139.674 258.909,140.094 260.187,139.698C262.913,138.851 262.273,140.61 259.382,141.905C255.771,143.524 254.364,143.388 255.899,141.568C256.939,140.336 256.83,140.077 255.266,140.064C253.751,140.052 253.662,139.872 254.816,139.154C255.607,138.661 256.41,137.252 256.601,136.021C257.037,133.21 258.738,131.148 260.622,131.148C261.419,131.148 261.791,130.701 261.448,130.155C261.105,129.61 261.282,129.163 261.842,129.163C262.402,129.163 263.224,129.787 263.667,130.549C264.358,131.736 264.661,131.736 265.775,130.549C266.49,129.787 266.717,129.132 266.279,129.093C265.841,129.055 266.391,128.64 267.5,128.171C269.355,127.386 269.315,127.309 266.996,127.215L264.474,127.112L266.856,125.16C268.166,124.087 268.872,123.208 268.425,123.208C267.978,123.208 269.115,122.118 270.951,120.786C272.787,119.453 275,117.332 275.869,116.072C277.417,113.827 277.408,113.816 275.437,115.504C273.885,116.833 273.151,116.958 272.228,116.049C270.135,113.99 270.774,112.078 273.293,112.864C275.303,113.492 275.402,113.389 274.179,111.94C273.061,110.614 273.036,109.756 274.047,107.355C275.146,104.744 275.542,104.53 277.449,105.513C279.503,106.573 279.526,106.536 277.935,104.745C276.446,103.069 276.43,102.713 277.789,101.486C278.962,100.427 279.49,100.387 280.072,101.313C280.617,102.181 281.646,101.798 283.748,99.946L286.668,97.373L284.146,97.543C282.759,97.637 280.57,97.645 279.282,97.56C277.347,97.432 277.171,97.18 278.273,96.109C279.006,95.396 280.501,94.479 281.596,94.071C283.264,93.449 283.345,93.18 282.1,92.405C280.889,91.652 280.988,91.466 282.633,91.396C284.65,91.311 280.615,89.605 282.633,89.52C284.218,89.454 284.345,89.246 283.226,88.548C282.021,87.798 282.061,87.406 283.478,86.012C284.4,85.104 285.169,84.729 285.186,85.177C285.202,85.626 285.675,85.218 286.236,84.27C287.322,82.437 291.769,82.174 293.982,83.813C294.861,84.464 295.243,85.395 295.243,84.285C295.243,82.811 293.86,82.21 288.697,81.443C286.785,81.159 286.805,81.033 289.139,78.737C290.677,77.224 291.734,76.767 291.985,77.508C292.205,78.156 292.99,78.686 293.73,78.686C294.47,78.686 295.226,79.118 295.411,79.646C295.596,80.174 296.271,79.507 296.911,78.163C298.001,75.875 297.92,75.757 295.65,76.318C293.816,76.771 293.225,76.514 293.225,75.262C293.225,74.352 293.588,73.827 294.03,74.096C294.473,74.366 295.419,74.231 296.132,73.797C297.146,73.181 297.087,72.879 295.864,72.417C295.003,72.092 294.03,72.253 293.703,72.775C292.85,74.133 289.954,73.952 290.422,72.57C290.878,71.224 293.431,70.505 297.978,70.442C301.223,70.396 303.157,68.405 301.144,67.181C300.431,66.747 300.527,66.252 301.432,65.702C302.521,65.04 302.54,64.627 301.53,63.633C300.519,62.639 300.722,62.143 302.547,61.146C304.385,60.142 304.484,59.894 303.061,59.866C302.09,59.846 301.296,59.393 301.296,58.858C301.296,57.64 308.663,53.881 311.092,53.861C312.626,53.848 312.67,53.701 311.384,52.883C310.552,52.354 310.325,51.908 310.88,51.891C311.434,51.874 311.237,51.455 310.44,50.959C309.24,50.212 309.218,49.789 310.311,48.493C311.037,47.633 312.256,46.929 313.021,46.929C313.898,46.929 314.41,45.81 314.41,43.893C314.41,42.214 314.842,41.119 315.375,41.444C315.906,41.766 316.09,42.798 315.784,43.735C315.424,44.843 315.533,45.03 316.095,44.271C317.274,42.68 320.818,43.112 321.616,44.944C322.142,46.152 322.413,46.058 323.054,44.448C323.488,43.356 324.524,41.417 325.356,40.139C326.188,38.861 326.993,36.674 327.144,35.279C327.295,33.884 327.943,32.25 328.584,31.648C329.956,30.358 328.937,40.141 327.353,43.455C326.42,45.408 326.43,45.409 327.974,43.513C328.837,42.454 329.543,41.003 329.543,40.288C329.543,38.716 330.032,38.679 332.888,40.036C334.888,40.987 334.929,40.954 333.326,39.679C330.709,37.597 331.288,32.4 333.927,34.275C334.119,34.412 335.006,33.928 335.896,33.201C337.583,31.824 341.648,32.455 341.648,34.094C341.648,34.603 342.118,35.019 342.693,35.019C343.388,35.019 343.362,34.33 342.615,32.957C341.998,31.823 341.735,30.274 342.031,29.515C342.327,28.757 342.135,27.872 341.604,27.55C340.42,26.829 341.701,27.08 342.534,27.08C342.756,27.08 343.78,27.406 344.962,27.898C344.863,27.954 344.767,28.011 344.674,28.07C343.842,28.599 343.615,29.032 344.17,29.032C344.601,29.032 345.383,28.771 346.101,28.405ZM230.802,164.22C229.613,162.208 229.325,162.852 230.299,165.348C230.645,166.235 231.14,166.752 231.4,166.496C231.66,166.24 231.391,165.216 230.802,164.22Z" style="fill:rgb(191,191,191);"/>
        </g>
        <g transform="matrix(1,0,0,1,13.1961,3.45705)">
            <path class="country-path" d="M346.101,28.405C346.307,28.301 346.507,28.188 346.692,28.07C347.524,27.541 347.751,27.108 347.196,27.108C346.703,27.108 345.752,27.45 344.962,27.898C345.333,28.052 345.719,28.223 346.101,28.405Z" style="fill:rgb(191,191,191);"/>
        </g>
        <g transform="matrix(1,0,0,1,13.1961,3.45705)">
            <path class="country-path" d="M361.33,463.61C360.987,463.064 359.712,462.611 358.496,462.603C357.28,462.594 355.605,462.151 354.773,461.617C353.731,460.949 354.831,460.819 358.304,461.2C365.809,462.023 367.887,462.55 367.887,463.629C367.887,464.909 362.135,464.892 361.33,463.61Z" style="fill:rgb(191,191,191);"/>
        </g>
        <g transform="matrix(1,0,0,1,13.1961,3.45705)">
            <path class="country-path" d="M442.139,455.083C441.761,454.115 442.178,452.642 443.118,451.62C445.991,448.497 443.07,446.359 440.025,449.354C438.793,450.566 438.084,450.692 437.229,449.851C435.588,448.237 431.912,448.461 430.388,450.266C428.796,452.154 426.068,453.633 422.132,454.743C419.664,455.44 418.74,455.173 416.715,453.182C414.596,451.097 406.892,447.731 404.239,447.731C403.743,447.731 403.191,448.725 403.014,449.939C402.636,452.524 398.849,454.671 395.972,453.931C394.866,453.647 393.543,452.332 393.032,451.009C392.521,449.686 391.679,448.862 391.161,449.177C390.643,449.492 389.562,448.826 388.759,447.699C387.612,446.088 386.678,445.795 384.403,446.333C382.81,446.71 381.819,446.685 382.201,446.278C382.583,445.871 381.722,444.468 380.288,443.161C378.854,441.854 378.201,440.784 378.837,440.784C379.473,440.784 379.993,440.114 379.993,439.296C379.993,438.477 379.312,437.807 378.48,437.807C377.648,437.807 376.967,437.137 376.967,436.318C376.967,435.5 377.534,434.823 378.228,434.815C379.103,434.804 379.046,434.524 378.04,433.898C376.852,433.158 376.825,432.721 377.888,431.46C378.958,430.192 378.896,429.639 377.536,428.302C376.176,426.964 376.115,426.409 377.184,425.129C378.326,423.763 378.09,423.654 375.201,424.217C372.515,424.74 371.925,424.546 371.938,423.144C371.977,418.826 376.464,417.092 388.064,416.912C391.671,416.855 393.94,416.535 393.108,416.2C392.11,415.798 392.967,415.176 395.63,414.37C397.914,413.679 398.768,413.116 397.597,413.073C395.626,413 393.108,411.288 393.108,410.019C393.108,409.329 401.396,409.741 405.453,410.632C407.448,411.07 408.385,410.801 408.829,409.663C409.91,406.893 421.986,401.971 427.254,402.154C429.836,402.243 432.701,402.008 433.622,401.63C434.779,401.156 435.49,401.546 435.925,402.893C436.625,405.063 440.175,406.413 441.141,404.876C441.482,404.333 442.292,404.934 442.942,406.21C443.592,407.486 445.015,408.577 446.106,408.634C447.196,408.69 449.45,409.288 451.115,409.961C455.84,411.873 459.999,412.288 463.88,411.233C466.225,410.596 468.063,410.603 469.244,411.254C471.249,412.357 478.279,410.728 480.874,408.559C481.707,407.863 484.513,407.072 487.111,406.801C491.518,406.342 492.044,406.542 494.978,409.803C497.078,412.136 497.787,413.627 497.112,414.291C496.518,414.876 496.456,415.938 496.963,416.87C497.437,417.742 497.984,418.901 498.177,419.447C498.37,419.993 499.664,420.44 501.051,420.44C503.359,420.44 503.673,420.943 503.22,423.913C503.137,424.459 502.339,424.906 501.447,424.906C500.347,424.906 500.034,425.438 500.473,426.563C502.269,431.168 503.073,437.102 502.063,438.299C501.296,439.208 501.39,439.708 502.398,440.089C503.168,440.379 504.041,441.533 504.338,442.652C504.852,444.584 504.529,444.667 497.934,444.299C494.058,444.082 490.72,444.338 490.381,444.877C489.997,445.488 489.284,445.443 488.441,444.754C487.518,444.001 486.905,443.986 486.453,444.706C486.094,445.278 483.8,445.747 481.357,445.747C478.913,445.747 474.591,446.647 471.753,447.748C467.285,449.48 466.052,449.59 462.571,448.564C459.43,447.638 457.8,447.646 455.118,448.6C452.498,449.532 451.169,449.549 449.506,448.674C447.794,447.772 447.14,447.814 446.457,448.87C445.978,449.608 445.804,450.795 446.07,451.506C446.335,452.218 445.707,453.692 444.674,454.783C442.96,456.594 442.738,456.62 442.139,455.083Z" style="fill:rgb(191,191,191);"/>
        </g>
        <g transform="matrix(1,0,0,1,13.1961,3.45705)">
            <path class="country-path" d="M141.289,454.911C140.67,454.51 139.211,452.333 138.047,450.074C136.634,447.331 134.912,445.616 132.867,444.915C129.445,443.741 128.963,441.754 131.495,439.263C132.875,437.905 132.962,437.249 131.968,435.683C130.993,434.148 131.046,433.35 132.231,431.685C133.537,429.851 133.529,429.332 132.164,427.282C130.761,425.175 130.774,424.802 132.306,423.295C133.236,422.381 133.777,420.806 133.508,419.797C133.24,418.787 133.461,417.693 134,417.365C134.539,417.037 134.85,415.557 134.692,414.076C134.517,412.43 135.304,410.259 136.717,408.492C138.043,406.833 138.568,405.45 137.947,405.246C137.353,405.051 136.866,404.036 136.866,402.99C136.866,401.568 136.153,401.088 134.041,401.088C132.488,401.088 130.778,401.519 130.241,402.047C129.114,403.156 124.76,402.286 124.76,400.953C124.76,400.46 123.625,400.337 122.238,400.68C120.076,401.214 119.716,400.965 119.716,398.935C119.716,397.633 118.996,395.555 118.115,394.319C116.853,392.546 116.771,391.767 117.725,390.635C118.391,389.846 119.298,389.42 119.739,389.689C121.047,390.484 123.751,389.077 123.751,387.603C123.751,385.704 128.478,384.707 130.327,386.216C131.273,386.988 133.669,387.272 136.774,386.978C139.491,386.721 142.553,386.994 143.578,387.584C144.603,388.174 149.754,388.761 155.025,388.888C166.796,389.171 171.251,389.706 172.059,390.935C173.488,393.109 179.167,394.965 184.319,394.943C192.788,394.906 193.36,395.019 193.36,396.728C193.36,397.688 193.923,398.11 194.774,397.789C195.552,397.495 196.459,397.52 196.788,397.844C197.859,398.898 203.448,399.114 203.448,398.102C203.448,397.561 203.902,397.118 204.457,397.118C205.012,397.118 205.466,398.378 205.466,399.919C205.466,403.18 200.696,406.76 193.559,408.856C191.171,409.557 188.935,410.887 188.589,411.812C188.243,412.736 186.138,416.056 183.911,419.189L179.862,424.886L181.522,428.311C183.167,431.704 183.154,431.766 180.201,434.877C178.561,436.604 177.219,438.863 177.219,439.897C177.219,441.092 176.51,441.777 175.275,441.777C174.205,441.777 171.964,443.408 170.293,445.402C167.546,448.681 166.792,449.021 162.401,448.97C159.731,448.938 154.894,449.387 151.652,449.966C147.02,450.793 145.527,451.517 144.681,453.345C143.528,455.834 143.052,456.054 141.289,454.911Z" style="fill:rgb(191,191,191);"/>
        </g>
        <g transform="matrix(1,0,0,1,13.1961,3.45705)">
            <path class="country-path" d="M343.639,449.476C342.699,447.492 342.013,447.028 341.112,447.764C339.587,449.009 338.294,446.474 339.731,445.06C340.317,444.484 339.721,443.251 338.162,441.81L335.65,439.489L337.799,437.655C338.981,436.647 340.446,435.824 341.054,435.826C342.694,435.831 349.097,439.818 350.042,441.421C350.492,442.186 351.286,442.552 351.807,442.235C352.328,441.919 352.754,442.133 352.754,442.711C352.754,444.043 351.155,444.052 348.652,442.734C346.322,441.507 346.237,441.985 348.14,445.606C349.652,448.482 348.752,452.178 347.157,449.64C346.554,448.679 346.175,448.839 345.641,450.278C344.992,452.026 344.814,451.955 343.639,449.476Z" style="fill:rgb(191,191,191);"/>
        </g>
        <g transform="matrix(1,0,0,1,13.1961,3.45705)">
            <path class="country-path" d="M287.955,447.731C287.262,446.64 285.783,445.739 284.668,445.729C281.796,445.706 273.285,440.525 273.782,439.103C274.01,438.452 274.802,438.147 275.542,438.427C276.282,438.706 277.177,438.475 277.53,437.912C277.967,437.217 278.891,437.211 280.417,437.895C281.865,438.544 284.719,438.584 288.452,438.008C291.636,437.517 294.226,437.382 294.206,437.709C294.187,438.036 293.546,439.412 292.784,440.768C291.872,442.388 291.71,443.809 292.311,444.914C294.446,448.837 290.342,451.491 287.955,447.731Z" style="fill:rgb(191,191,191);"/>
        </g>
        <g transform="matrix(1,0,0,1,13.1961,3.45705)">
            <path class="country-path" d="M122.665,446.044C120.219,445.671 120.081,445.349 120.364,440.689C120.53,437.962 120.883,435.384 121.149,434.961C121.833,433.873 118.356,431.141 116.896,431.62C115.259,432.157 115.357,428.792 117.05,426.367C119.459,422.915 121.758,410.577 120.681,406.882C119.396,402.475 119.414,402.39 121.736,401.792C122.894,401.495 123.756,401.762 123.758,402.421C123.761,403.052 125.35,403.648 127.289,403.746C129.229,403.844 130.816,403.509 130.816,403.002C130.816,402.495 131.901,402.08 133.228,402.08C136.522,402.08 137.714,406.463 135.172,409.226C134.119,410.37 133.5,412.334 133.675,413.973C133.839,415.511 133.532,417.037 132.994,417.365C132.455,417.693 132.258,418.88 132.557,420.003C132.957,421.509 132.528,422.193 130.923,422.606L128.746,423.166L130.699,426.423C132.461,429.36 132.504,429.888 131.142,431.801C129.985,433.426 129.904,434.246 130.796,435.302C131.691,436.363 131.569,437.268 130.268,439.222C129.337,440.618 128.836,442.428 129.154,443.243C129.631,444.466 126.775,447.146 125.586,446.59C125.411,446.508 124.096,446.263 122.665,446.044Z" style="fill:rgb(191,191,191);"/>
        </g>
        <g transform="matrix(1,0,0,1,13.1961,3.45705)">
            <path class="country-path" d="M355.265,439.773C354.916,439.217 352.505,437.705 349.909,436.413C346.416,434.676 343.839,434.132 339.998,434.325C335.42,434.554 334.681,434.313 333.743,432.289C332.822,430.301 332.978,429.936 334.899,429.569C336.935,429.181 336.949,429.135 335.066,429.011C331.551,428.779 328.216,419.944 331.644,419.944C332.158,419.944 332.578,419.328 332.578,418.576C332.578,417.825 333.254,416.657 334.08,415.983C334.907,415.308 335.334,414.361 335.03,413.877C334.557,413.124 336.604,412.564 338.787,412.847C339.15,412.895 340,412.277 340.676,411.476C341.352,410.675 343.211,410.019 344.808,410.019C346.404,410.019 347.711,409.573 347.711,409.027C347.711,408.481 348.816,408.035 350.167,408.035C351.518,408.035 353.865,407.57 355.384,407.002C357.428,406.238 359.08,406.323 361.754,407.332C363.74,408.081 366.813,408.599 368.582,408.483C370.636,408.349 372.005,408.8 372.369,409.732C373.324,412.182 372.055,412.9 368.63,411.844C365.062,410.745 364.551,410.719 360.825,411.447C359.438,411.718 357.395,412.11 356.286,412.317C355.176,412.525 354.207,413.321 354.132,414.086C354.058,414.852 353.944,415.924 353.879,416.47C353.815,417.016 352.653,417.526 351.297,417.602C349.505,417.704 348.731,417.161 348.464,415.618C348.122,413.637 348.004,413.679 346.721,416.249C345.668,418.357 345.623,419.279 346.528,420.169C347.178,420.809 347.711,422.137 347.711,423.12C347.711,424.102 348.392,424.906 349.224,424.906C350.056,424.906 350.737,425.379 350.737,425.957C350.737,426.535 350.283,426.732 349.728,426.395C347.964,425.322 346.473,426.913 347.785,428.468C348.73,429.587 348.588,429.876 347.078,429.91C345.672,429.941 345.979,430.385 348.278,431.646C353.487,434.504 355.461,436.223 356.209,438.552C356.947,440.849 356.392,441.567 355.265,439.773Z" style="fill:rgb(191,191,191);"/>
        </g>
        <g transform="matrix(1,0,0,1,13.1961,3.45705)">
            <path class="country-path" d="M296.998,438.201C296.254,437.469 298.044,432.609 299.35,431.815C299.898,431.481 299.422,428.699 298.217,425.188C296.626,420.555 295.589,419 293.79,418.556C292.388,418.21 291.184,416.971 290.805,415.486C290.397,413.889 289.462,412.997 288.194,412.997C287.108,412.997 285.507,411.928 284.637,410.622C283.538,408.971 281.725,408.05 278.696,407.603C274.935,407.049 273.277,405.89 266.636,399.176C262.4,394.894 258.933,390.782 258.929,390.037C258.926,389.292 258.477,387.098 257.93,385.163C257.136,382.352 255.992,381.192 252.246,379.402L247.556,377.16L243.721,380.192C239.515,383.517 238.631,383.853 239.011,381.983C239.15,381.301 238.409,380.74 237.365,380.737C236.321,380.734 234.79,379.73 233.963,378.504C232.86,376.87 232.792,376.277 233.708,376.277C234.617,376.277 234.54,375.653 233.423,373.975C232.016,371.864 232.05,371.575 233.834,370.479C235.367,369.538 235.56,368.883 234.747,367.388C233.228,364.595 233.348,364.449 237.75,363.757C241.392,363.184 242.269,362.422 241.905,360.15C241.648,358.55 243.755,359.529 245.64,361.887C247.979,364.811 248.835,365.008 248.879,362.631C248.923,360.28 251.535,356.919 252.077,358.518C252.697,360.348 256.918,360.684 256.918,358.903C256.918,358.088 257.372,357.421 257.926,357.421C258.481,357.421 258.935,356.703 258.935,355.826C258.935,354.744 259.477,354.436 260.62,354.867C261.547,355.217 262.628,354.989 263.023,354.361C264.229,352.44 270.376,352.22 271.742,354.05C272.404,354.938 274.4,355.957 276.176,356.314C278.973,356.877 279.454,357.432 279.77,360.464C280.101,363.638 279.829,364.076 276.849,365.161C271.329,367.171 270.848,367.709 271.972,370.618C272.652,372.377 272.645,373.434 271.952,373.855C271.342,374.226 271.22,375.756 271.653,377.612C272.054,379.334 272.336,381.524 272.279,382.48C272.222,383.435 272.601,384.216 273.121,384.216C273.642,384.216 274.068,383.766 274.068,383.215C274.068,382.664 275.666,383.222 277.619,384.455C280.36,386.185 281.525,387.879 282.724,391.872C284.833,398.894 290.443,403.492 295.717,402.518C299.299,401.857 300.25,402.721 298.181,404.756C297.379,405.546 298.832,406.826 303.478,409.422C312.76,414.608 317.258,418.514 315.715,420.048C314.745,421.011 314.348,420.912 313.827,419.576C313.464,418.646 311.786,417.183 310.099,416.324C307.159,414.829 306.951,414.862 305.148,417.105C301.231,421.979 301.094,422.738 303.811,424.49C306.857,426.453 307.127,429.491 304.332,430.364C303.223,430.71 302.315,431.649 302.315,432.45C302.315,434.146 299.395,438.799 298.332,438.799C297.933,438.799 297.333,438.53 296.998,438.201Z" style="fill:rgb(191,191,191);"/>
        </g>
        <g transform="matrix(1,0,0,1,13.1961,3.45705)">
            <path class="country-path" d="M245.27,428.469C243.586,427.257 243.459,426.632 244.4,424.18C245.213,422.062 245.184,420.251 244.289,417.27C243.087,413.264 243.103,413.219 246.287,411.725C249.322,410.301 249.57,410.335 250.846,412.344C251.587,413.512 252.348,415.767 252.536,417.355C252.966,420.989 251.071,428.126 249.87,427.395C249.375,427.094 248.581,427.532 248.106,428.368C247.352,429.694 246.991,429.707 245.27,428.469Z" style="fill:rgb(191,191,191);"/>
        </g>
        <g transform="matrix(1,0,0,1,13.1961,3.45705)">
            <path class="country-path" d="M327.556,421.715C327.544,420.779 326.587,419.515 325.43,418.906C324.272,418.296 323.575,417.552 323.881,417.252C324.186,416.951 324.014,415.93 323.498,414.981C322.982,414.033 322.846,412.977 323.195,412.633C324.233,411.613 324.301,402.724 323.287,400.776C322.089,398.475 324.014,396.01 326.346,396.86C329.698,398.081 331.446,401.06 330.868,404.566C330.47,406.98 330.934,408.892 332.538,411.445C333.76,413.39 334.299,414.982 333.737,414.982C333.174,414.982 332.448,415.763 332.124,416.718C331.8,417.673 330.645,419.572 329.557,420.936C327.987,422.905 327.574,423.066 327.556,421.715Z" style="fill:rgb(191,191,191);"/>
        </g>
        <g transform="matrix(1,0,0,1,13.1961,3.45705)">
            <path class="country-path" d="M375.558,414.093C373.597,413.347 372.376,408.489 373.915,407.553C374.379,407.271 374.524,406.155 374.236,405.074C373.578,402.597 378.4,400.368 380.575,402.144C381.316,402.749 382.393,402.956 382.97,402.606C383.547,402.255 384.503,403.013 385.094,404.29C385.686,405.567 387.617,407.267 389.386,408.068L392.602,409.523L387.21,409.827C383.072,410.059 381.311,410.676 379.643,412.475C378.104,414.135 376.912,414.607 375.558,414.093Z" style="fill:rgb(191,191,191);"/>
        </g>
        <g transform="matrix(1,0,0,1,13.1961,3.45705)">
            <path class="country-path" d="M333.138,410.429C332.275,409.58 331.569,407.806 331.569,406.486C331.569,403.862 334.459,399.895 335.784,400.701C336.24,400.978 336.613,400.784 336.613,400.271C336.613,398.588 344.386,399.114 345.956,400.903C349.335,404.751 348.221,409.027 343.841,409.027C342.775,409.027 341.423,409.597 340.835,410.294C339.278,412.14 334.954,412.216 333.138,410.429Z" style="fill:rgb(191,191,191);"/>
        </g>
        <g transform="matrix(1,0,0,1,13.1961,3.45705)">
            <path class="country-path" d="M361.798,406.235C359.218,405.006 358.09,404.972 354.835,406.029C350.672,407.381 348.48,406.823 349.335,404.631C349.626,403.885 348.945,402.433 347.822,401.403C345.962,399.699 345.755,398.274 346.586,392.9C346.649,392.491 347.382,392.156 348.214,392.156C349.046,392.156 349.727,391.486 349.727,390.667C349.727,389.848 349.285,389.178 348.744,389.178C348.204,389.178 347.05,387.825 346.18,386.171C344.814,383.571 344.794,382.973 346.034,381.753C347.635,380.178 348.848,380.744 348.082,382.709C347.516,384.158 351.778,385.075 361.329,385.561C365.933,385.795 368.025,385.432 370.071,384.042C374.507,381.029 378.449,380.733 382.538,383.106C384.53,384.263 386.815,385.209 387.615,385.209C389.765,385.209 389.383,386.882 387.099,387.469C385.994,387.754 384.811,389.218 384.407,390.801C384.011,392.354 383.082,394.219 382.343,394.946C380.84,396.425 380.501,398.531 381.903,397.678C383.209,396.884 384.281,400.243 383.094,401.41C382.434,402.059 381.608,401.995 380.661,401.223C378.717,399.636 373.915,401.458 373.228,404.044C372.341,407.381 366.538,408.493 361.798,406.235Z" style="fill:rgb(191,191,191);"/>
        </g>
        <g transform="matrix(1,0,0,1,13.1961,3.45705)">
            <path class="country-path" d="M247.058,404.809C246.999,404.127 246.674,402.145 246.335,400.405C245.831,397.818 246.119,397.03 247.915,396.085C250.16,394.903 251.819,396.007 251.857,398.707C251.917,402.954 247.394,408.706 247.058,404.809Z" style="fill:rgb(191,191,191);"/>
        </g>
        <g transform="matrix(1,0,0,1,13.1961,3.45705)">
            <path class="country-path" d="M331.569,400.024C331.569,398.532 329.339,396.508 326.832,395.725C325.273,395.238 324.183,395.722 322.721,397.55C320.857,399.881 320.636,399.93 319.208,398.33C317.156,396.029 316.007,392.156 317.378,392.156C317.97,392.156 318.454,391.459 318.454,390.608C318.454,389.758 318.912,389.339 319.47,389.679C320.029,390.019 320.759,389.598 321.092,388.745C321.424,387.892 322.329,387.194 323.102,387.194C324.792,387.194 324.958,385.6 323.369,384.634C322.596,384.164 322.777,383.641 323.932,383.005C325.486,382.149 325.448,381.91 323.497,380.246C321.675,378.691 321.547,378.131 322.621,376.438C323.636,374.84 323.623,374.147 322.558,372.884C321.673,371.836 321.61,371.315 322.366,371.315C322.989,371.315 323.499,370.868 323.499,370.322C323.499,368.492 321.298,369.306 320.759,371.336C320.345,372.893 319.921,373.092 318.861,372.227C317.604,371.201 313.105,370.644 301.305,370.053C297.329,369.854 296.726,370.094 296.453,371.98C296.263,373.291 297.944,376.671 300.754,380.624L305.366,387.116L302.093,386.907C298.687,386.689 292.498,381.308 294.355,380.179C294.874,379.863 294.381,378.786 293.258,377.787C292.135,376.787 291.217,375.163 291.217,374.177C291.217,373.191 290.333,371.574 289.252,370.584C288.001,369.438 287.589,368.303 288.117,367.462C288.698,366.538 289.154,366.471 289.637,367.239C290.775,369.05 294.061,368.48 294.748,366.353C295.1,365.261 295.864,364.368 296.447,364.368C297.029,364.368 297.266,363.469 296.974,362.37C296.399,360.208 298.622,358.484 301.412,358.93C302.303,359.072 304.807,360.344 306.977,361.756C311.549,364.733 317.446,366.241 317.446,364.433C317.446,363.787 317.912,363.542 318.481,363.888C319.051,364.234 319.451,365.042 319.37,365.683C319.072,368.064 319.495,369.33 320.59,369.33C321.209,369.33 321.492,368.548 321.217,367.593C320.943,366.638 320.549,365.246 320.343,364.5C320.136,363.753 320.649,362.98 321.481,362.781C327.998,361.221 328.393,361.243 330.462,363.278C331.626,364.424 332.578,366.016 332.578,366.817C332.578,367.619 333.599,368.847 334.848,369.546C336.096,370.246 337.118,371.663 337.118,372.695C337.118,373.728 338.025,375.067 339.135,375.673C340.245,376.278 341.528,377.22 341.986,377.766C342.526,378.409 343,378.321 343.331,377.518C343.613,376.835 344.162,376.277 344.553,376.277C345.685,376.277 345.7,380.531 344.573,381.866C343.493,383.147 345.645,388.419 347.777,389.715C348.46,390.131 348.055,390.938 346.689,391.879C345.313,392.827 344.693,394.068 345.007,395.248C345.619,397.552 344.588,398.231 340.383,398.29C338.587,398.315 336.112,398.955 334.883,399.712C332.197,401.366 331.569,401.425 331.569,400.024Z" style="fill:rgb(191,191,191);"/>
        </g>
        <g transform="matrix(1,0,0,1,13.1961,3.45705)">
            <path class="country-path" d="M196.609,396.648C195.414,394.694 190.194,393.458 184.357,393.746C178.73,394.024 172.577,391.933 173.711,390.129C174.039,389.606 173.637,389.178 172.816,389.178C171.522,389.178 171.506,388.686 172.692,385.457C173.444,383.41 174.459,378.386 174.948,374.292C175.743,367.645 175.461,365.304 175.865,363.318C176.351,360.929 176.016,360.27 173.818,359.285C170.885,357.97 167.748,353.879 168.615,352.498C168.925,352.005 168.214,350.937 167.035,350.125C165.856,349.312 165.194,348.165 165.564,347.576C165.964,346.938 165.379,346.504 164.12,346.504C162.955,346.504 160.189,345.594 157.973,344.482C155.757,343.369 153.487,342.737 152.929,343.076C152.295,343.461 152.151,342.766 152.544,341.225C153.002,339.431 152.671,338.48 151.332,337.742C148.907,336.408 150.138,335.331 154.24,335.198C156.057,335.139 158.105,334.421 158.792,333.602C159.879,332.306 160.285,332.421 161.932,334.489C163.06,335.905 164.314,336.567 165.038,336.127C165.706,335.721 167.732,335.389 169.541,335.389L172.83,335.389L172.131,331.27C171.747,329.005 171.077,326.318 170.64,325.299C169.937,323.656 170.092,323.576 172.018,324.59C173.212,325.219 174.189,326.107 174.189,326.563C174.189,327.636 181.629,328.816 183.629,328.061C184.47,327.743 184.91,326.847 184.607,326.069C184.233,325.11 185.519,324.019 188.609,322.674C193.113,320.714 195.374,317.384 195.374,312.711C195.374,311.682 196.573,310.56 198.305,309.966C200.854,309.092 201.305,309.22 201.765,310.95C202.161,312.439 202.819,312.776 204.383,312.287C205.788,311.849 206.471,312.072 206.471,312.97C206.471,314.739 209.778,317.466 211.311,316.963C211.978,316.745 212.581,317.05 212.65,317.641C212.719,318.232 212.844,319.274 212.927,319.957C213.009,320.639 213.911,321.127 214.931,321.041C215.951,320.955 218.097,322.033 219.699,323.438C221.301,324.842 223.752,326.111 225.146,326.257C226.54,326.403 230.144,327.669 233.154,329.07C236.165,330.471 239.11,331.618 239.7,331.618C241.097,331.618 241.058,333.204 239.595,335.895C238.948,337.084 237.897,340.069 237.259,342.529C236.573,345.173 235.508,347.019 234.652,347.045C233.856,347.07 233.3,347.575 233.417,348.168C233.534,348.76 232.739,350.037 231.651,351.006C230.564,351.974 229.674,353.319 229.674,353.995C229.674,354.671 228.964,355.491 228.097,355.819C227.229,356.146 226.814,356.883 227.175,357.457C227.535,358.031 227.223,359.254 226.482,360.176C225.333,361.605 225.569,361.579 228.077,360.001C230.925,358.21 231.062,358.209 232.368,359.965C233.222,361.115 233.364,362.126 232.756,362.725C232.147,363.324 232.333,364.694 233.262,366.462C234.622,369.049 234.576,369.334 232.641,370.353C230.98,371.228 230.795,371.741 231.739,372.86C232.392,373.633 232.674,374.914 232.365,375.704C231.556,377.779 235.435,382.279 237.394,381.539C238.743,381.03 238.809,381.266 237.826,383.073C237.187,384.248 236.242,385.209 235.726,385.209C235.21,385.209 233.355,386.586 231.604,388.27C229.729,390.073 227.745,391.128 226.777,390.836C225.873,390.564 223.659,389.856 221.855,389.263C213.257,386.438 212.984,386.425 208.905,388.665C206.311,390.09 204.841,391.655 204.62,393.231C204.434,394.55 203.924,395.997 203.485,396.447C202.175,397.793 197.394,397.933 196.609,396.648Z" style="fill:rgb(191,191,191);"/>
        </g>
        <g transform="matrix(1,0,0,1,13.1961,3.45705)">
            <path class="country-path" d="M312.129,393.486C310.055,392.034 308.358,390.072 308.358,389.126C308.358,388.18 307.776,387.186 307.065,386.918C305.084,386.17 297.261,374.487 297.261,372.276C297.261,369.861 298.14,369.788 299.892,372.059C301.07,373.585 301.236,373.602 301.264,372.195C301.288,371.023 302.039,370.698 304.071,370.978C305.596,371.189 309.063,371.57 311.774,371.825C314.485,372.08 317.317,372.789 318.067,373.401C318.816,374.013 320.116,374.255 320.955,373.938C321.891,373.585 322.481,373.926 322.481,374.819C322.481,375.621 322.027,376.277 321.473,376.277C320.918,376.277 320.464,377.17 320.464,378.262C320.464,379.353 320.903,380.246 321.441,380.246C321.978,380.246 322.154,380.922 321.832,381.748C321.51,382.573 321.807,383.913 322.492,384.725C323.527,385.951 323.38,386.201 321.628,386.201C320.075,386.201 319.688,386.637 320.162,387.852C320.565,388.884 320.405,389.26 319.737,388.853C318.296,387.978 315.287,392.647 316.043,394.585C316.849,396.651 316.518,396.558 312.129,393.486Z" style="fill:rgb(191,191,191);"/>
        </g>
        <g transform="matrix(1,0,0,1,13.1961,3.45705)">
            <path class="country-path" d="M354.543,384.061C353.832,383.618 352.202,383.247 350.921,383.239C349.585,383.23 348.865,382.789 349.232,382.204C349.585,381.643 348.817,380.318 347.526,379.259C346.186,378.16 345.746,377.321 346.5,377.302C347.226,377.284 347.559,376.853 347.239,376.344C346.919,375.835 345.319,375.456 343.684,375.501C340.221,375.598 337.289,373.579 338.052,371.622C338.365,370.82 337.556,369.802 336.08,369.14C334.704,368.524 333.578,367.22 333.578,366.243C333.578,365.266 332.784,363.972 331.813,363.367C330.842,362.763 330.501,362.063 331.056,361.814C335.604,359.767 337.06,358.578 337.648,356.428C338.371,353.791 344.675,343.532 344.675,344.994C344.675,345.469 345.72,344.893 346.997,343.713C348.868,341.983 349.894,341.729 352.293,342.402C353.929,342.861 356.379,343.068 357.736,342.862C359.144,342.649 360.543,343.082 360.992,343.871C361.661,345.048 362.5,345.029 366.594,343.744C369.242,342.913 372.126,341.631 373.002,340.895C375.672,338.652 376.537,339.288 380.962,346.752C384.511,352.737 385.284,354.988 385.56,360.137C385.743,363.542 386.183,367.226 386.537,368.325C387.248,370.53 390.953,371.044 392.829,369.198C394.079,367.969 397.134,368.694 397.134,370.221C397.134,371.835 393.737,374.689 393.312,373.433C393.102,372.814 392.586,372.307 392.165,372.307C391.235,372.307 389.063,379.163 389.063,382.099C389.063,383.555 388.433,384.216 387.046,384.216C385.936,384.216 385.028,383.805 385.028,383.301C385.028,381.846 378.114,379.995 375.286,380.693C373.87,381.043 371.542,382.083 370.112,383.005C367.342,384.791 356.852,385.502 354.543,384.061Z" style="fill:rgb(191,191,191);"/>
        </g>
        <g transform="matrix(1,0,0,1,13.1961,3.45705)">
            <path class="country-path" d="M425.811,377.618C425.215,377.4 424.916,375.962 425.146,374.422C425.489,372.123 424.972,371.256 422.25,369.56L418.937,367.496L422.698,365.732C427.838,363.321 427.233,361.054 421.338,360.632C418.845,360.454 416.137,360.081 415.321,359.804C414.016,359.36 414.016,359.189 415.316,358.399C416.572,357.635 416.503,357.289 414.863,356.109C413.799,355.344 412.213,354.853 411.337,355.017C405.282,356.154 404.195,356.616 404.195,358.05C404.195,361.127 395.261,367.933 389.856,368.974C387.837,369.363 388.219,368.107 392.089,361.647C394.485,357.647 396.125,356.31 396.125,358.357C396.125,358.871 397.094,359.109 398.279,358.884C400.786,358.409 402.097,357.421 400.22,357.421C399.513,357.421 399.184,356.784 399.487,356.005C399.791,355.227 399.386,354.055 398.587,353.403C397.787,352.75 397.133,351.154 397.133,349.857C397.133,348.35 396.547,347.497 395.511,347.497C394.321,347.497 394.044,346.888 394.471,345.211C394.854,343.71 394.453,342.432 393.305,341.489C387.918,337.07 376.598,335.571 373.847,338.913C371.547,341.707 362.113,344.705 361.397,342.87C361.1,342.109 359.664,341.622 358.071,341.742C353.473,342.091 346.984,340.527 345.264,338.657C343.137,336.345 344.906,330.395 347.437,331.35C348.728,331.838 348.895,331.493 348.304,329.553C347.901,328.233 347.488,326.673 347.385,326.088C347.154,324.781 354.367,316.732 355.769,316.732C356.326,316.732 356.85,316.174 356.935,315.492C357.019,314.809 357.158,313.581 357.244,312.762C357.33,311.944 356.663,310.157 355.763,308.793C354.131,306.318 354.138,302.838 355.774,302.838C356.249,302.838 357.357,302.13 358.237,301.264C360.866,298.677 377.293,299.353 379.119,302.123C379.476,302.664 381.821,303.158 384.331,303.22C386.842,303.283 389.232,303.666 389.643,304.07C390.055,304.475 390.971,304.332 391.68,303.753C392.592,303.009 393.591,303.027 395.09,303.817C396.256,304.431 398.047,304.672 399.07,304.352C400.228,303.991 401.154,304.345 401.523,305.29C402.581,308.002 404.196,306.894 404.196,303.456C404.196,299.141 406.174,297.607 411.989,297.414C414.568,297.329 416.843,296.775 417.043,296.184C417.243,295.593 418.242,295.324 419.262,295.587C420.283,295.849 421.385,295.639 421.712,295.118C422.859,293.293 427.462,295.118 428.976,297.999C429.802,299.569 430.09,300.853 429.617,300.853C429.144,300.853 428.957,302.193 429.201,303.831C429.62,306.637 430.725,307.319 434.163,306.892C435.575,306.717 439.063,311.543 438.163,312.428C437.83,312.755 438.023,313.879 438.592,314.926C439.296,316.219 440.254,316.632 441.586,316.216C442.747,315.853 444.192,316.24 445.132,317.164C446.549,318.558 446.949,318.566 448.884,317.232C451.97,315.106 452.958,315.349 454.991,318.734C455.98,320.382 457.204,321.477 457.712,321.168C458.871,320.463 468.007,323.608 470.781,325.667C472.779,327.149 472.79,327.282 471.061,329.165C469.253,331.134 468.728,334.241 469.89,336.084C470.529,337.097 470.324,339.68 469.421,341.994C469.108,342.797 467.908,343.092 466.234,342.777C464.134,342.382 462.905,342.966 460.593,345.456C458.967,347.207 457.862,348.996 458.136,349.433C458.41,349.869 456.588,350.79 454.087,351.479C451.586,352.168 449.298,353.117 449.002,353.588C448.706,354.059 447.795,354.444 446.978,354.444C446.161,354.444 443.804,355.185 441.741,356.091C439.678,356.997 437.686,357.779 437.315,357.828C435.68,358.045 431.433,362.524 431.433,364.031C431.433,364.944 431.711,365.419 432.05,365.085C432.389,364.751 433.803,365.807 435.192,367.431C437.063,369.619 438.276,370.227 439.872,369.779C441.057,369.446 442.82,368.955 443.791,368.689C444.891,368.387 445.557,368.75 445.557,369.654C445.557,371.534 443.01,372.464 439.937,371.705C438.233,371.284 437.319,371.582 436.883,372.699C436.541,373.575 435.569,374.293 434.723,374.293C433.877,374.293 431.769,375.13 430.039,376.153C428.309,377.177 426.406,377.836 425.811,377.618Z" style="fill:rgb(191,191,191);"/>
        </g>
        <g transform="matrix(1,0,0,1,13.1961,3.45705)">
            <path class="country-path" d="M283.031,364.615C280.438,360.043 281.082,357.969 285.152,357.781C288.792,357.614 295.488,356.208 298.417,354.996C301.511,353.716 301.453,356.43 298.349,358.174C296.139,359.416 295.436,360.41 295.852,361.708C296.256,362.968 295.814,363.673 294.392,364.039C293.163,364.355 292.569,365.115 292.896,365.954C293.538,367.599 292.776,367.71 290.192,366.349C288.928,365.684 288.094,365.684 287.676,366.349C286.558,368.13 284.612,367.403 283.031,364.615Z" style="fill:rgb(191,191,191);"/>
        </g>
        <g transform="matrix(1,0,0,1,13.1961,3.45705)">
            <path class="country-path" d="M386.891,364.674C386.81,363.687 386.65,360.489 386.535,357.569C386.42,354.649 385.918,351.969 385.421,351.615C384.482,350.945 383.767,349.864 379.584,342.783L377.093,338.567L379.563,337.957C382.145,337.319 388.047,339.185 388.047,340.638C388.047,341.101 388.728,341.222 389.56,340.908C390.392,340.594 391.073,340.831 391.073,341.435C391.073,342.04 391.754,342.534 392.586,342.534C394.371,342.534 394.544,343.684 392.99,345.213C392.183,346.007 392.431,346.847 393.899,348.291C395.01,349.384 396.22,351.215 396.59,352.36C396.96,353.506 397.671,354.443 398.171,354.443C398.671,354.443 398.82,355.11 398.502,355.925C398.119,356.909 397.142,357.213 395.594,356.831C393.594,356.337 392.98,356.884 391.274,360.679C389.037,365.652 387.115,367.405 386.891,364.674Z" style="fill:rgb(191,191,191);"/>
        </g>
        <g transform="matrix(1,0,0,1,13.1961,3.45705)">
            <path class="country-path" d="M309.595,362.271C303.423,359.265 301.091,356.01 301.921,351.56C302.287,349.598 302.978,347.843 303.457,347.66C303.935,347.477 304.071,346.919 303.757,346.42C303.443,345.92 303.846,345.512 304.651,345.512C305.457,345.512 306.401,344.781 306.75,343.888C307.326,342.409 307.54,342.404 309.137,343.826C311.313,345.763 319.447,345.033 319.447,342.9C319.447,342.113 320.507,341.542 321.969,341.542C323.356,341.542 324.491,341.137 324.491,340.643C324.491,340.148 325.346,339.963 326.39,340.232C327.559,340.532 328.83,339.962 329.693,338.75C330.666,337.383 332.249,336.779 334.855,336.779C336.923,336.779 338.614,337.181 338.614,337.672C338.614,338.163 339.68,338.565 340.982,338.565C342.284,338.565 344.418,339.477 345.724,340.591C348.093,342.612 348.093,342.618 345.963,343.166C343.733,343.739 336.597,354.104 336.597,356.768C336.597,358.843 335.356,359.455 329.226,360.401C321.114,361.654 318.017,362.421 316.976,363.435C315.579,364.794 314.393,364.607 309.595,362.271Z" style="fill:rgb(191,191,191);"/>
        </g>
        <g transform="matrix(1,0,0,1,13.1961,3.45705)">
            <path class="country-path" d="M233.59,360.143C232.719,358.076 231.857,357.403 230.517,357.747C228.243,358.333 227.058,356.862 229.163,356.067C229.992,355.754 230.671,354.898 230.671,354.164C230.671,353.43 231.957,351.618 233.528,350.137C236.279,347.544 238.538,346.877 247.36,346.054C251.311,345.685 251.446,345.771 251.669,348.817C251.912,352.146 254.461,354.814 256.619,354C258.48,353.297 258.209,354.148 255.824,356.494C254.148,358.142 253.449,358.31 252.268,357.345C251.46,356.685 250.696,356.32 250.57,356.535C250.445,356.749 249.856,357.791 249.262,358.85C247.711,361.613 245.759,361.935 245.12,359.534C244.674,357.856 244.214,357.656 242.665,358.471C241.617,359.023 240.759,360.079 240.759,360.816C240.759,361.554 239.418,362.351 237.779,362.587C235.255,362.952 234.615,362.578 233.59,360.143Z" style="fill:rgb(191,191,191);"/>
        </g>
        <g transform="matrix(1,0,0,1,13.1961,3.45705)">
            <path class="country-path" d="M279.094,356.088C274.973,355.216 273.288,354.34 272.544,352.68C271.901,351.248 270.997,350.662 270.022,351.047C269.186,351.377 267.49,351.768 266.253,351.914C265.016,352.061 263.362,352.705 262.577,353.346C261.468,354.251 260.817,354.185 259.666,353.053C258.709,352.112 257.836,351.935 257.206,352.555C255.609,354.126 252.865,352.429 252.865,349.871C252.865,347.321 253.532,347 255.843,348.438C256.649,348.94 257.784,349.052 258.365,348.687C258.946,348.322 260.557,347.953 261.944,347.867C263.331,347.781 266.457,347.146 268.89,346.456C272.223,345.511 273.767,345.48 275.149,346.329C277.569,347.816 278.364,346.361 277.024,342.895C276.128,340.577 276.253,339.897 277.773,338.823C278.777,338.114 280.408,336.865 281.396,336.047C282.7,334.968 283.708,334.829 285.062,335.542C286.514,336.307 287.516,335.99 289.572,334.116C292.069,331.84 292.428,331.782 296.117,333.062C298.264,333.807 300.843,334.345 301.85,334.258C303.159,334.144 303.924,335.086 304.541,337.572C305.968,343.319 305.91,343.862 303.81,344.45C302.7,344.761 301.747,345.574 301.692,346.256C301.636,346.938 301.523,348.597 301.439,349.942C301.231,353.313 298.158,354.79 287.164,356.801C285.777,357.054 282.146,356.734 279.094,356.088Z" style="fill:rgb(191,191,191);"/>
        </g>
        <g transform="matrix(1,0,0,1,13.1961,3.45705)">
            <path class="country-path" d="M254.315,346.448C252.685,345.388 250.784,344.73 250.091,344.985C249.397,345.24 248.83,345.061 248.83,344.587C248.83,343.622 244.777,343.823 240.397,345.003C237.549,345.771 237.522,345.738 238.25,342.421C238.656,340.573 239.817,337.448 240.832,335.476L242.676,331.891L236.421,329.471C231.042,327.39 230.166,326.699 230.166,324.531C230.166,323.145 229.61,321.348 228.929,320.538C228.002,319.434 227.981,318.782 228.846,317.931C229.71,317.08 229.564,315.849 228.261,313.005C226.946,310.137 226.766,308.584 227.522,306.628C228.071,305.206 228.286,303.159 227.999,302.08C227.61,300.615 228.095,299.964 229.91,299.516C233.003,298.752 235.434,294.118 233.187,293.27C231.272,292.547 231.221,290.928 233.113,290.928C234.913,290.928 236.088,285.926 235.21,281.996C234.568,279.121 234.669,279.019 238.157,279.019C240.143,279.019 241.654,279.354 241.516,279.763C241.227,280.615 242.104,281.004 244.309,281.004C245.428,281.004 245.676,280.354 245.226,278.592C244.68,276.452 244.876,276.248 246.972,276.78C248.271,277.109 249.788,277.926 250.343,278.595C250.898,279.264 252.486,280.101 253.874,280.455C256.175,281.043 256.224,280.994 254.427,279.898C251.9,278.356 247.24,272.902 247.568,271.871C247.707,271.436 247.253,271.066 246.56,271.05C245.857,271.033 246.077,270.574 247.057,270.012C248.703,269.068 248.709,268.844 247.143,266.493L245.47,263.982L249.42,264.674C254.261,265.522 255.948,266.833 253.865,268.129C252.51,268.971 253.153,269.52 255.134,269.213C255.551,269.148 255.891,269.466 255.891,269.919C255.891,270.372 257.48,270.691 259.422,270.627C262.991,270.511 264.17,271.675 261.503,272.682C260.706,272.983 260.257,273.75 260.506,274.387C261.012,275.682 265.979,276.279 265.979,275.045C265.979,274.172 273.521,270.087 275.132,270.087C275.693,270.087 277.109,270.965 278.28,272.038C279.45,273.111 280.813,273.742 281.308,273.441C284.439,271.538 287.887,280.72 285.645,284.986C284.364,287.422 284.402,287.878 285.997,289.298C286.978,290.172 288.299,293.017 288.932,295.622C291.43,305.902 291.446,306.565 289.248,308.728C288.102,309.855 286.413,310.777 285.496,310.777C284.578,310.777 280.908,312.383 277.34,314.346C271.373,317.629 270.906,318.126 271.507,320.549C271.867,321.997 274.515,325.559 277.393,328.463L282.625,333.744L278.788,336.943C275.277,339.87 275.041,340.376 276.013,342.891C277.431,346.56 277.382,346.709 275.195,345.365C273.754,344.48 272.28,344.503 268.89,345.464C266.457,346.154 263.331,346.789 261.944,346.875C260.557,346.961 258.94,347.333 258.35,347.703C257.761,348.073 255.945,347.509 254.315,346.448Z" style="fill:rgb(191,191,191);"/>
        </g>
        <g transform="matrix(1,0,0,1,13.1961,3.45705)">
            <path class="country-path" d="M308.039,341.981C304.389,338.617 304.553,334.27 308.349,333.76C311.183,333.38 314.402,330.923 314.402,329.142C314.402,328.495 315.537,327.458 316.924,326.836C318.8,325.995 319.446,325.994 319.446,326.831C319.446,327.484 320.213,327.272 321.276,326.327C322.687,325.07 323.379,324.967 324.302,325.875C324.96,326.523 325.499,327.633 325.499,328.343C325.499,330.037 327.533,329.932 329.979,328.113C332.555,326.196 337.707,326.263 341.981,328.268L345.418,329.88L343.781,333.716C342.217,337.38 340.373,338.578 339.191,336.697C338.889,336.216 336.82,335.797 334.593,335.767C331.522,335.725 330.281,336.198 329.449,337.728C328.734,339.041 327.679,339.571 326.422,339.247C325.36,338.974 324.237,339.156 323.927,339.65C323.616,340.145 322.254,340.549 320.899,340.549C319.383,340.549 318.437,341.121 318.437,342.038C318.437,342.857 317.642,343.533 316.671,343.54C315.7,343.548 313.998,343.787 312.888,344.072C311.581,344.408 309.874,343.672 308.039,341.981Z" style="fill:rgb(191,191,191);"/>
        </g>
        <g transform="matrix(1,0,0,1,13.1961,3.45705)">
            <path class="country-path" d="M279.645,329.499C276.054,326.025 272.857,322.065 272.539,320.701C272.03,318.521 272.605,317.866 277.265,315.309C284.057,311.582 293.216,309.316 293.216,311.362C293.216,312.132 293.556,312.688 293.973,312.599C295.502,312.27 300.249,313.989 299.797,314.708C299.541,315.116 300.384,316.423 301.671,317.612C303.744,319.528 304.156,319.602 305.292,318.256C306.426,316.911 307.165,317.048 311.748,319.456C319.146,323.342 319.935,324.673 315.914,326.475C314.527,327.097 313.392,328.209 313.392,328.947C313.392,330.642 308.91,333.069 307.436,332.172C306.828,331.803 306.331,331.967 306.331,332.537C306.331,333.803 298.99,333.232 294.76,331.638C292.411,330.752 291.539,330.789 290.724,331.807C287.157,336.268 286.499,336.131 279.645,329.499Z" style="fill:rgb(191,191,191);"/>
        </g>
        <g transform="matrix(1,0,0,1,13.1961,3.45705)">
            <path class="country-path" d="M343.153,327.997C338.451,325.315 332.957,325.004 329.719,327.235C327.563,328.721 327.322,328.664 325.356,326.206C323.754,324.202 322.964,323.857 321.922,324.709C320.883,325.557 320.262,325.315 319.251,323.666C317.616,321.002 303.746,313.841 304.635,316.121C305.569,318.517 303.773,318.884 301.771,316.708C300.447,315.269 300.331,314.746 301.333,314.746C303.493,314.746 301.022,312.788 298.187,312.253C296.841,312 295.235,311.117 294.619,310.292C294.003,309.467 293.073,308.792 292.551,308.792C292.03,308.792 291.603,307.304 291.603,305.485C291.603,300.215 289.031,291.101 287.044,289.332C285.407,287.874 285.368,287.431 286.661,284.971C287.692,283.01 287.844,281.352 287.198,279.135C286.167,275.599 286.451,275.36 294.905,272.646C297.775,271.724 300.605,270.4 301.193,269.703C302.74,267.87 312.822,264.697 314.767,265.431C315.676,265.774 316.419,266.918 316.419,267.974C316.419,270.244 321.787,272.459 324.337,271.241C326.651,270.136 349.516,270.472 350.582,271.627C351.544,272.67 354.755,284.918 354.755,287.545C354.755,288.462 353.531,290.327 352.036,291.69C349.34,294.148 349.334,294.183 351.341,295.781C352.851,296.984 353.335,298.497 353.252,301.753C353.187,304.298 353.97,307.762 355.131,310.07C356.855,313.499 356.924,314.173 355.647,315.131C354.836,315.738 352.23,318.328 349.855,320.886C346.064,324.969 345.678,325.798 346.696,327.67C348.293,330.605 347.805,330.65 343.153,327.997Z" style="fill:rgb(191,191,191);"/>
        </g>
        <g transform="matrix(1,0,0,1,13.1961,3.45705)">
            <path class="country-path" d="M220.693,323.294C219.524,322.07 218.568,320.247 218.568,319.243C218.568,317.536 218.447,317.524 216.723,319.058C214.765,320.802 213.446,321.186 213.643,319.956C214.013,317.655 213.217,316.523 210.599,315.625C208.99,315.073 207.433,313.716 207.139,312.61C206.737,311.1 206.084,310.761 204.515,311.251C202.924,311.748 202.427,311.472 202.427,310.09C202.427,307.512 206.01,305.507 208.383,306.756C209.757,307.479 211.297,307.242 214.16,305.865C216.387,304.794 218.217,304.407 218.422,304.965C218.619,305.503 219.867,306.349 221.196,306.846C222.864,307.471 223.612,308.526 223.612,310.256C223.612,311.795 224.182,312.761 225.09,312.761C227.136,312.761 228.745,315.985 227.592,317.777C227.085,318.566 226.649,318.766 226.623,318.22C226.598,317.674 226.109,318.018 225.537,318.984C224.966,319.95 224.766,321.572 225.094,322.588C226,325.396 223.139,325.855 220.693,323.294Z" style="fill:rgb(191,191,191);"/>
        </g>
        <g transform="matrix(1,0,0,1,13.1961,3.45705)">
            <path class="country-path" d="M225.922,322.684C225.806,321.047 226.091,319.708 226.556,319.708C228.129,319.708 229.703,322.425 229.07,324.049C228.037,326.696 226.15,325.878 225.922,322.684Z" style="fill:rgb(191,191,191);"/>
        </g>
        <g transform="matrix(1,0,0,1,13.1961,3.45705)">
            <path class="country-path" d="M147.523,314.995C152.822,308.044 154.352,306.842 157.929,306.824C161.3,306.807 162.953,305.558 165.174,301.349C166.077,299.637 166.04,299.58 164.905,300.938C164.181,301.804 162.53,303.068 161.236,303.746C159.253,304.785 158.69,304.719 157.652,303.323C156.976,302.412 155.764,301.778 154.961,301.913C154.157,302.047 152.7,301.814 151.722,301.394C150.677,300.945 149.324,301.135 148.443,301.855C147.618,302.529 146.909,302.914 146.868,302.71C145.976,298.315 146.058,298.127 149.24,297.244C151.467,296.627 153.046,295.255 154.254,292.891C155.289,290.862 155.599,289.302 155.004,289.106C154.447,288.923 154.248,288.365 154.562,287.866C154.876,287.367 154.409,286.958 153.524,286.958C152.229,286.958 152.126,286.573 152.996,284.974C154.161,282.831 159.428,282.176 160.592,284.029C161.041,284.743 161.684,284.712 162.641,283.931C163.824,282.965 163.805,282.564 162.516,281.296C161.589,280.384 161.338,279.359 161.873,278.666C163.348,276.755 162.758,271.576 161.066,271.576C157.878,271.576 157.244,266.9 160.057,264.133C162.075,262.148 162.075,262.148 159.553,262.148C158.166,262.148 157.031,262.547 157.031,263.034C157.031,264.498 153.844,265.237 152.448,264.097C151.478,263.305 151.061,263.473 150.81,264.753C150.491,266.381 150.381,266.381 148.719,264.746C147.052,263.106 147.064,262.827 148.964,259.164C150.248,256.688 150.59,255.082 149.921,254.675C149.347,254.327 149.176,253.118 149.54,251.99C150.043,250.431 149.841,250.075 148.695,250.507C147.867,250.82 146.679,250.575 146.057,249.963C145.22,249.14 144.907,249.225 144.854,250.288C144.811,251.16 144.465,250.944 143.976,249.743C143.444,248.435 143.828,246.402 145.098,243.788L147.028,239.818L144.562,242.691C142.971,244.543 141.522,245.347 140.484,244.955C138.326,244.141 138.429,242.319 140.638,242.221C141.609,242.178 141.858,241.925 141.191,241.658C140.292,241.299 140.423,240.227 141.695,237.519C142.639,235.508 143.866,233.536 144.421,233.135C144.99,232.723 144.661,232.399 143.664,232.39C141.03,232.368 141.231,226.763 143.896,225.931C144.994,225.588 145.809,225 145.707,224.623C145.604,224.247 146.066,222.376 146.734,220.466L147.947,216.993L154.507,216.9C162.17,216.793 162.84,217.907 157.516,221.902C155.564,223.367 154.221,224.97 154.532,225.465C154.843,225.96 154.345,227.494 153.426,228.874C151.55,231.69 152.303,231.985 156.022,229.894C158.744,228.363 168.686,227.877 169.537,229.233C170.572,230.879 165.251,241.797 162.641,243.383C158.92,245.643 158.188,246.624 160.814,245.83C164.646,244.671 163.325,246.777 159.328,248.199C155.709,249.487 155.659,249.567 157.961,250.405C159.275,250.883 161.115,251.035 162.051,250.743C164.41,250.007 170.343,254.181 171.21,257.186C171.603,258.551 172.435,261.512 173.057,263.766C173.919,266.887 174.92,268.163 177.25,269.113C181.627,270.896 182.494,273.05 180.035,276.037L178.01,278.498L181.062,279.723C184.844,281.241 186.072,284.45 183.812,286.907C182.284,288.568 182.294,288.747 183.954,289.374C184.938,289.746 185.904,289.577 186.099,289C186.609,287.495 191.5,287.765 193.722,289.42C196.627,291.584 195.188,297.402 191.252,299.404C189.595,300.247 188.477,301.318 188.77,301.783C189.062,302.249 188.594,302.897 187.73,303.223C185.285,304.146 187.071,305.815 190.505,305.815C193.186,305.815 193.423,306.019 192.294,307.358C189.983,310.097 186.91,311.196 181.243,311.309C170.078,311.531 168.01,311.77 168.635,312.765C169.334,313.877 166.315,313.636 164.336,312.421C162.364,311.21 159.471,312.549 158.22,315.252C157.226,317.399 156.783,317.57 154.675,316.625C152.804,315.787 151.572,315.899 149.151,317.131C144.605,319.444 144.368,319.133 147.523,314.995Z" style="fill:rgb(191,191,191);"/>
        </g>
        <g transform="matrix(1,0,0,1,13.1961,3.45705)">
            <path class="country-path" d="M223.613,306.44C222.225,305.842 220.549,304.844 219.886,304.222C219.224,303.6 217.408,303.259 215.851,303.464L213.02,303.838L215.918,302.494L218.817,301.149L212.742,299.954L215.151,295.273C216.476,292.698 217.56,289.997 217.56,289.271C217.56,288.545 218.041,287.951 218.629,287.951C219.252,287.951 219.498,289.199 219.22,290.938C218.591,294.861 221.776,296.934 224.587,294.432C226.089,293.095 226.205,292.397 225.26,290.391C224.631,289.057 223.776,287.963 223.36,287.958C221.73,287.942 222.655,283.11 224.369,282.689C233.102,280.544 237.933,284.901 232.44,289.966C230.33,291.911 230.292,292.148 231.897,293.312C233.424,294.42 233.456,294.8 232.172,296.602C231.374,297.723 229.566,298.926 228.154,299.274C225.999,299.806 225.751,300.212 226.612,301.795C227.176,302.833 227.3,304.547 226.886,305.604C226.246,307.241 225.761,307.365 223.613,306.44Z" style="fill:rgb(191,191,191);"/>
        </g>
        <g transform="matrix(1,0,0,1,13.1961,3.45705)">
            <path class="country-path" d="M402.073,304.822C401.756,304.003 400.173,303.245 398.555,303.137C396.936,303.029 392.263,302.74 388.171,302.495C384.078,302.25 380.446,301.619 380.1,301.092C378.297,298.344 360.702,297.757 357.792,300.348C355.531,302.361 353.734,301.612 354.442,298.951C354.772,297.709 354.229,296.675 352.871,295.96C350.636,294.783 350.963,291.921 353.332,291.921C355.462,291.921 356.104,287.523 354.772,282.061C353.391,276.4 353.884,274.998 357.042,275.596C359.799,276.119 363.04,275.199 362.344,274.091C361.866,273.331 366.492,271.563 368.087,271.897C368.483,271.98 368.565,271.429 368.27,270.672C367.975,269.915 368.218,269.001 368.811,268.641C369.403,268.28 369.888,267.342 369.888,266.555C369.888,264.986 373.39,261.156 374.825,261.156C376.153,261.156 377.01,258.364 375.804,257.968C375.129,257.746 375.201,256.699 376.013,254.945C376.996,252.823 377.744,252.382 379.588,252.837C381.326,253.266 382.562,252.694 384.447,250.585C385.837,249.03 386.989,248.302 387.006,248.967C387.024,249.632 387.719,249.92 388.551,249.605C389.384,249.291 390.065,249.555 390.065,250.191C390.065,250.828 390.478,251.097 390.982,250.791C392.523,249.854 395.016,251.307 394.433,252.802C393.781,254.472 395.251,254.664 396.825,253.115C398.484,251.484 403.374,254.125 405.045,257.556C406.096,259.713 406.16,260.961 405.313,262.79C404.43,264.695 409.018,272.543 409.989,273.256C410.96,273.969 411.754,275.222 411.754,276.04C411.754,276.858 412.435,277.572 413.267,277.626C416.797,277.855 417.391,278.075 416.841,278.95C416.522,279.458 416.722,280.155 417.286,280.498C419.011,281.546 418.437,282.975 415.819,284.148C413.957,284.983 412.971,284.974 411.918,284.115C410.188,282.703 407.605,285.172 408.808,287.086C409.225,287.751 409.885,290.009 410.275,292.106C410.912,295.532 410.749,295.976 408.669,296.489C405.496,297.273 403.415,299.784 402.998,303.333C402.784,305.153 402.424,305.732 402.073,304.822Z" style="fill:rgb(191,191,191);"/>
        </g>
        <g transform="matrix(1,0,0,1,13.1961,3.45705)">
            <path class="country-path" d="M115.543,303.037C115.477,302.654 115.477,302.006 115.543,301.597C115.608,301.187 115.181,300.852 114.594,300.852C114.006,300.852 113.817,300.388 114.174,299.82C114.595,299.149 113.822,299.003 111.963,299.402L109.105,300.017L111.461,298.133C112.795,297.066 113.67,295.442 113.478,294.387C113.22,292.965 114.094,292.237 117.175,291.307C120.69,290.245 120.852,290.078 118.436,290.012C115.127,289.921 114.709,287.56 117.679,285.736C120.599,283.942 120.164,282.991 116.418,282.974C114.615,282.965 112.473,282.544 111.659,282.037C110.413,281.262 110.533,280.813 112.416,279.207C115.2,276.831 115.29,275.049 112.627,275.049C110.853,275.049 110.758,274.802 111.861,273.065C113.269,270.846 116.231,270.418 117.011,272.32C117.413,273.3 117.537,273.296 117.6,272.301C117.654,271.44 118.528,271.251 120.367,271.706C122.575,272.25 122.943,272.082 122.429,270.764C121.206,267.627 124.001,267.901 126.898,271.201L129.84,274.553L131.808,272.072C132.89,270.708 133.786,270.132 133.798,270.793C133.81,271.454 134.787,272.881 135.969,273.964C138.358,276.154 139.914,285.414 138.652,289.936C137.184,295.196 136.661,295.981 135.339,294.902C134.414,294.146 133.798,294.13 133.347,294.85C132.987,295.422 131.913,295.89 130.959,295.89C130.005,295.89 128.415,296.82 127.425,297.958C126.436,299.095 125.002,299.79 124.24,299.502C123.478,299.214 122.696,299.445 122.503,300.014C122.081,301.261 115.712,304.028 115.543,303.037Z" style="fill:rgb(191,191,191);"/>
        </g>
        <g transform="matrix(1,0,0,1,13.1961,3.45705)">
            <path class="country-path" d="M352.133,272.642C351.631,271.529 350.264,270.155 349.095,269.588C347.396,268.764 347.142,268.098 347.83,266.27C348.941,263.316 346.847,261.155 342.874,261.155C339.141,261.155 336.992,258.765 336.144,253.666C335.586,250.311 335.835,249.331 337.656,247.711C339.496,246.076 341.062,245.817 347.676,246.055C351.988,246.21 356.571,246.536 357.86,246.781C359.149,247.025 360.574,246.675 361.027,246.002C361.643,245.087 362.112,245.217 362.891,246.517C363.463,247.472 364.728,248.254 365.701,248.254C368.475,248.254 374.288,254.699 373.657,257.074C373.364,258.175 373.644,259.285 374.278,259.541C374.913,259.797 374.638,260.041 373.667,260.084C372.696,260.127 371.902,260.833 371.902,261.651C371.902,262.47 371.221,263.14 370.388,263.14C369.48,263.14 368.875,264.057 368.875,265.434C368.875,268.066 365.484,272.072 363.256,272.072C362.428,272.072 361.508,272.693 361.212,273.452C360.326,275.722 353.236,275.09 352.133,272.642Z" style="fill:rgb(191,191,191);"/>
        </g>
        <g transform="matrix(1,0,0,1,13.1961,3.45705)">
            <path class="country-path" d="M137.242,273.032C136.071,272.595 134.789,271.419 134.393,270.418C133.725,268.728 133.535,268.766 131.731,270.941L129.788,273.284L127.898,270.988C126.015,268.7 126.022,268.677 129.756,265.04C134.551,260.37 137.74,259.288 139.547,261.719C140.283,262.709 140.885,264.327 140.885,265.314C140.885,266.302 141.339,267.11 141.894,267.11C143.508,267.11 143.06,270.007 141.137,271.998C139.875,273.305 138.766,273.6 137.242,273.032Z" style="fill:rgb(191,191,191);"/>
        </g>
        <g transform="matrix(1,0,0,1,13.1961,3.45705)">
            <path class="country-path" d="M278.703,269.515C277.865,267.368 278.259,266.98 280.126,268.115C281.207,268.772 281.302,269.307 280.483,270.112C279.664,270.918 279.187,270.758 278.703,269.515Z" style="fill:rgb(191,191,191);"/>
        </g>
        <g transform="matrix(1,0,0,1,13.1961,3.45705)">
            <path class="country-path" d="M122.533,264.862C123.186,264.087 123.503,263.239 123.236,262.977C122.97,262.715 124.593,261.483 126.842,260.239C129.092,258.995 131.184,258.225 131.491,258.527C131.799,258.83 131.179,260.549 130.115,262.349C128.628,264.864 127.389,265.696 124.762,265.946C121.906,266.217 121.54,266.039 122.533,264.862Z" style="fill:rgb(191,191,191);"/>
        </g>
        <g transform="matrix(1,0,0,1,13.1961,3.45705)">
            <path class="country-path" d="M247.573,263.448C246.405,263.148 245.807,262.023 245.807,260.125C245.807,258.394 245.098,256.882 244.02,256.315C242.52,255.524 242.248,254.064 242.324,247.205C242.405,239.945 242.673,238.831 244.728,237.194C245.999,236.181 247.942,235.352 249.045,235.352C250.148,235.352 252.388,233.943 254.023,232.221C257.977,228.058 259.872,229.511 257.953,235.234C256.269,240.253 257.213,244.284 260.073,244.284C261.86,244.284 261.994,244.523 260.919,245.796C260.217,246.628 259.409,247.079 259.123,246.797C258.159,245.849 256.01,248.386 256.568,249.815C256.91,250.692 256.481,251.231 255.439,251.231C254.515,251.231 254.039,251.677 254.382,252.223C254.725,252.769 254.411,253.217 253.685,253.219C252.797,253.221 252.356,254.684 252.338,257.685C252.323,260.139 252.777,262.154 253.347,262.162C253.916,262.171 253.701,262.61 252.869,263.14C251.283,264.148 250.477,264.195 247.573,263.448Z" style="fill:rgb(191,191,191);"/>
        </g>
        <g transform="matrix(1,0,0,1,13.1961,3.45705)">
            <path class="country-path" d="M267.285,260.7C265.504,259.451 264.292,258.188 264.592,257.892C264.892,257.597 264.656,256.469 264.066,255.386C263.118,253.643 263.531,253.169 267.662,251.258C271.413,249.524 272.496,249.358 273.176,250.414C274.365,252.259 274.263,255.445 273.038,254.7C272.479,254.36 271.732,254.826 271.377,255.734C271.023,256.642 271.291,257.725 271.974,258.14C272.884,258.693 272.759,259.066 271.503,259.54C270.112,260.065 270.025,260.463 271.037,261.663C272.833,263.792 271.038,263.331 267.285,260.7Z" style="fill:rgb(191,191,191);"/>
        </g>
        <g transform="matrix(1,0,0,1,13.1961,3.45705)">
            <path class="country-path" d="M332.432,262.25C333.191,261.776 334.205,260.779 334.686,260.032C335.33,259.032 335.564,259.262 335.576,260.907C335.587,262.57 335.012,263.136 333.321,263.125C331.649,263.114 331.415,262.883 332.432,262.25Z" style="fill:rgb(191,191,191);"/>
        </g>
        <g transform="matrix(1,0,0,1,13.1961,3.45705)">
            <path class="country-path" class="country-path class="country-path"" d="M289.648,261.089C288.563,259.361 289.799,258.995 291.183,260.635C291.979,261.578 292.055,262.148 291.386,262.148C290.796,262.148 290.014,261.671 289.648,261.089Z" style="fill:rgb(191,191,191);"/>
        </g>
        <g transform="matrix(1,0,0,1,13.1961,3.45705)">
            <path class="country-path" class="country-path class="country-path"" d="M277.627,257.254C277.26,256.671 277.191,255.827 277.472,255.379C277.754,254.931 277.106,253.144 276.033,251.409C274.961,249.674 274.53,248.254 275.077,248.254C276.323,248.254 276.392,242.036 275.16,240.761C273.216,238.748 266.691,224.99 265.375,220.127C263.719,214.012 263.483,209.247 264.947,211.526C266.571,214.053 268.516,210.961 268.408,206.026C268.355,203.597 268.744,201.61 269.272,201.61C269.801,201.61 270.004,201.02 269.722,200.298C269.441,199.577 270.029,198.483 271.03,197.868C273.306,196.47 274.411,190.24 273.139,185.979C272.398,183.497 272.482,182.754 273.502,182.754C274.64,182.754 276.012,179.955 276.057,177.544C276.065,177.134 275.049,175.795 273.801,174.567C272.068,172.862 271.484,171.043 271.332,166.875C271.222,163.873 271.057,160.301 270.964,158.936C270.871,157.571 270.867,155.115 270.955,153.478C271.043,151.84 271.082,149.831 271.042,149.012C270.783,143.787 273.778,137.638 277.084,136.605C278.097,136.289 280.088,136.317 281.508,136.667C283.606,137.185 284.304,136.844 285.229,134.848C286.411,132.296 285.127,128.171 283.15,128.171C282.644,128.171 283.557,125.379 285.179,121.968C287.404,117.288 288.195,114.033 288.404,108.708C288.675,101.813 288.751,101.63 291.707,100.769C294.018,100.096 294.737,99.3 294.748,97.406C294.755,96.042 295.932,93.139 297.363,90.955C302.389,83.286 302.6,83.752 300.858,81.137C298.906,78.205 298.884,77.695 300.709,77.695C301.498,77.695 302.69,76.02 303.358,73.973C304.026,71.926 305.246,69.492 306.07,68.564C307.403,67.061 307.813,67.034 309.812,68.323C311.896,69.667 312.142,69.589 313.232,67.235C313.877,65.841 314.406,63.158 314.406,61.273C314.406,59.388 314.86,57.846 315.415,57.846C315.97,57.846 316.423,58.293 316.423,58.839C316.423,59.385 317.354,59.831 318.491,59.831C319.628,59.831 321.979,60.553 323.714,61.436C326.68,62.945 326.952,62.93 328.239,61.2C329.068,60.084 329.207,59.226 328.59,59.024C327.997,58.829 328.252,57.671 329.203,56.243C330.502,54.292 330.604,53.3 329.703,51.355C328.801,49.408 328.853,48.914 329.956,48.914C330.717,48.914 331.59,49.555 331.895,50.338C332.2,51.12 335.726,54.024 339.729,56.79C349.36,63.444 352.13,67.472 351.845,74.408C351.726,77.307 352.063,79.68 352.594,79.68C353.126,79.68 353.337,80.521 353.064,81.549C352.791,82.577 353.252,83.59 354.088,85.182C355.285,87.459 355.398,89.051 354.617,92.654C353.951,95.721 353.968,98.489 354.667,101.041C355.24,103.135 355.722,105.259 355.738,105.759C355.782,107.14 349.03,106.846 347.246,105.39C346.102,104.456 345.679,104.427 345.679,105.283C345.679,105.928 345.225,106.179 344.67,105.842C344.084,105.486 343.661,106.465 343.661,108.18C343.661,110.161 342.685,112.039 340.695,113.887C339.063,115.402 337.967,117.022 338.259,117.488C338.552,117.954 337.972,119.543 336.97,121.02C334.895,124.08 335.01,126.137 337.357,127.916C338.825,129.03 338.748,129.395 336.568,131.678C335.24,133.069 333.682,135.624 333.107,137.355C332.368,139.576 330.575,141.349 327.016,143.376C322.41,146 313.397,155.527 313.397,157.772C313.397,158.287 312.232,159.459 310.807,160.377C308.872,161.625 308.489,162.368 309.292,163.32C310.068,164.239 309.792,166.219 308.299,170.448C306.701,174.973 306.379,177.588 306.88,181.951C307.469,187.083 307.781,187.653 310.287,188.195C313.183,188.821 320.459,197.139 320.459,199.823C320.459,200.631 319.215,201.85 317.695,202.531C315.113,203.689 315.05,203.856 316.747,205.076C318.703,206.484 317.331,208.234 315.259,206.975C314.614,206.582 314.366,206.698 314.703,207.235C315.038,207.768 314.455,208.925 313.409,209.807C312.047,210.954 311.367,211.075 311.018,210.232C310.716,209.504 310.503,209.622 310.46,210.543C310.421,211.362 309.002,213.154 307.306,214.525C304.583,216.728 304.166,217.769 303.728,223.457C303.456,226.998 302.956,230.788 302.618,231.88C302.279,232.971 301.913,235.314 301.803,237.084C301.693,238.855 300.766,242.131 299.742,244.364C297.894,248.396 297.853,248.419 293.534,247.782C289.93,247.251 289.186,247.416 289.186,248.749C289.186,249.633 288.783,250.112 288.291,249.813C286.902,248.968 285.097,251.709 285.391,254.219C285.581,255.845 285.09,256.541 283.637,256.704C282.528,256.829 280.871,257.242 279.956,257.622C279.041,258.003 277.993,257.837 277.627,257.254Z" style="fill:rgb(191,191,191);"/>
        </g>
        <g transform="matrix(1,0,0,1,13.1961,3.45705)">
            <path class="country-path"  d="M371.064,250.769C369.343,248.84 367.176,247.261 366.249,247.261C365.322,247.261 363.996,246.497 363.301,245.562C362.357,244.293 361.691,244.135 360.668,244.938C359.914,245.53 358.617,245.906 357.784,245.774C356.952,245.642 352.916,245.255 348.816,244.914C342.352,244.376 340.91,244.568 337.971,246.355L334.581,248.416L334.588,245.605C334.591,244.06 335.272,241.516 336.101,239.953C336.93,238.389 337.615,236.156 337.623,234.991C337.644,232.109 338.589,231.037 342.148,229.855C344.828,228.965 345.433,229.153 347.444,231.5C348.692,232.958 349.714,234.628 349.714,235.212C349.714,235.797 350.622,236.753 351.731,237.337C355.794,239.476 360.461,234.61 359.307,229.44C358.761,226.997 359.099,226.415 361.849,225.066C365.432,223.308 367.483,224.108 371.744,228.93C373.45,230.86 374.38,231.231 375.697,230.506C376.908,229.839 378.265,230.049 380.267,231.212C382.794,232.681 383.054,233.29 382.578,236.635C382.278,238.743 382.441,240.161 382.947,239.853C383.444,239.551 384.376,240.87 385.019,242.785C386.063,245.896 385.937,246.58 383.839,249.223C382.264,251.206 380.839,252.035 379.511,251.743C378.422,251.503 376.78,251.974 375.863,252.791C374.359,254.129 373.886,253.93 371.064,250.769Z" style="fill:rgb(191,191,191);"/>
        </g>
        <g transform="matrix(1,0,0,1,13.1961,3.45705)">
            <path class="country-path" d="M314.406,232.328C314.406,229.475 318.364,224.436 320.606,224.436C322.086,224.436 321.546,226.453 319.899,227.075C318.981,227.421 318.453,228.586 318.626,229.883C318.922,232.109 316.944,235.352 315.291,235.352C314.804,235.352 314.406,233.991 314.406,232.328Z" style="fill:rgb(191,191,191);"/>
        </g>
        <g transform="matrix(1,0,0,1,13.1961,3.45705)">
            <path class="country-path" d="M372.263,228.19C369.564,224.903 364.992,222.244 363.557,223.126C360.861,224.783 359.59,224.321 360.068,221.858C360.567,219.29 359.036,217.482 357.898,219.294C357.073,220.607 355.668,219.69 353.993,216.744C352.973,214.95 352.973,214.509 353.993,214.496C354.778,214.487 354.877,214.203 354.254,213.752C353.699,213.351 353.097,211.985 352.917,210.716C352.681,209.061 353.18,208.258 354.682,207.872C355.834,207.575 356.776,207.01 356.776,206.616C356.776,205.358 361.983,203.512 363.869,204.101C364.868,204.413 365.94,204.263 366.25,203.769C366.927,202.692 370.343,203.002 374.244,204.494C375.806,205.091 379.071,205.58 381.499,205.58L385.915,205.58L383.463,209.797C380.873,214.255 380.249,220.232 382.033,223.511C382.849,225.01 382.643,225.894 381.102,227.521C380.014,228.67 378.616,229.3 377.994,228.922C377.373,228.544 376.249,228.737 375.498,229.35C374.445,230.21 373.704,229.944 372.263,228.19Z" style="fill:rgb(191,191,191);"/>
        </g>
        <g transform="matrix(1,0,0,1,13.1961,3.45705)">
            <path class="country-path" d="M342.656,219.46C342.656,218.236 343.562,217.302 345.121,216.917C348.538,216.073 350.39,217.347 348.027,218.915C344.366,221.343 342.656,221.517 342.656,219.46Z" style="fill:rgb(191,191,191);"/>
        </g>
        <g transform="matrix(1,0,0,1,13.1961,3.45705)">
            <path class="country-path" d="M345.319,212.829C344.183,211.712 344.627,210.541 346.187,210.541C347.02,210.541 347.701,210.961 347.701,211.475C347.701,212.726 346.125,213.622 345.319,212.829Z" style="fill:rgb(191,191,191);"/>
        </g>
        <g transform="matrix(1,0,0,1,13.1961,3.45705)">
            <path class="country-path" d="M349.047,197.073C348.736,196.276 348.716,194.745 349.001,193.671C349.436,192.034 349.221,191.876 347.668,192.694C344.792,194.208 342.344,193.915 343.037,192.141C343.386,191.246 343.117,190.673 342.388,190.76C341.703,190.841 340.194,190.602 339.033,190.229C337.321,189.678 336.977,188.863 337.208,185.903C337.365,183.897 337.574,182.033 337.672,181.76C337.771,181.487 337.815,180.979 337.77,180.631C337.725,180.283 338.109,178.555 338.623,176.792C339.319,174.403 339.162,172.833 338.008,170.636C337.155,169.014 336.71,167.038 337.02,166.246C337.329,165.453 337.058,162.877 336.417,160.52C335.357,156.623 335.45,156.027 337.441,153.924C338.646,152.652 339.517,150.915 339.378,150.063C339.209,149.028 340.056,148.409 341.928,148.197C343.469,148.023 344.618,147.353 344.48,146.708C344.027,144.589 347.154,139.075 349.166,138.447C351.709,137.653 352.58,136.714 356.713,130.311C361.223,123.325 362.647,122.023 364.981,122.752C366.741,123.301 366.862,122.967 366.324,119.064C365.29,111.568 364.888,110.451 363.008,109.864C357.252,108.067 353.955,100.376 355.629,92.651C356.409,89.052 356.297,87.456 355.105,85.188C354.257,83.575 353.856,82.387 354.195,81.059C354.551,79.665 354.356,78.685 353.723,78.685C353.078,78.685 352.733,76.783 352.864,73.954C353.163,67.513 349.64,62.476 340.574,56.382C333.069,51.337 329.376,47.104 333.643,48.436C335.432,48.995 335.774,48.82 335.294,47.589C334.899,46.577 335.399,45.814 336.731,45.399C337.854,45.048 338.899,44.914 339.054,45.1C339.208,45.286 340.536,47.488 342.005,49.994C345.517,55.983 348.919,57.589 352.562,54.978C355.218,53.075 355.245,53.077 359.445,55.498L363.661,57.929L364.305,55.046C364.694,53.303 365.957,51.712 367.498,51.021C369.682,50.042 369.951,49.444 369.373,46.856C368.502,42.954 372.397,33.036 374.803,33.028C375.709,33.025 378.246,31.953 380.441,30.647L384.431,28.271L388.664,31.684C393.965,35.957 394.899,39.073 392.056,43.001C390.893,44.607 390.242,46.399 390.609,46.983C390.976,47.566 390.521,48.865 389.599,49.868C388.492,51.071 388.288,51.915 388.998,52.347C389.758,52.809 389.761,53.58 389.008,54.964C388.395,56.091 388.223,58.779 388.603,61.276C389.137,64.776 389.804,65.845 392.022,66.749C393.538,67.366 395.723,69.498 396.877,71.486L398.977,75.1L395.558,81.779L392.139,87.329L395.112,94.422C399.34,104.508 400.312,108.325 398.797,108.896C396.316,109.832 396.014,122.926 398.434,124.666C399.479,125.418 399.851,126.627 399.473,128.048C399.072,129.559 399.567,130.885 401.035,132.23C403.856,134.815 403.75,136.69 400.672,138.674L398.159,140.293L400.216,143.135C401.347,144.697 403.593,146.744 405.208,147.682C409.778,150.338 410.828,153.93 408.392,158.577C406.507,162.172 399.227,171.882 396.042,175.049C395.254,175.832 391.942,179.433 388.681,183.051C383.639,188.646 382.281,189.612 379.598,189.512C377.862,189.448 374.991,190.134 373.218,191.036C371.445,191.938 369.047,192.676 367.89,192.676C366.734,192.676 364.691,193.383 363.35,194.247C362.01,195.111 359.87,195.965 358.594,196.146C357.318,196.327 354.775,196.935 352.943,197.498C350.266,198.321 349.501,198.237 349.047,197.073Z" style="fill:rgb(191,191,191);"/>
        </g>
        <g transform="matrix(1,0,0,1,13.1961,3.45705)">
            <path class="country-path" d="M344.674,195.843C344.674,195.31 345.393,194.602 346.272,194.271C347.254,193.9 347.715,194.122 347.47,194.847C346.967,196.33 344.674,197.147 344.674,195.843Z" style="fill:rgb(191,191,191);"/>
        </g>
        <g transform="matrix(1,0,0,1,13.1961,3.45705)">
            <path class="country-path" d="M325.506,194.165C325.506,193.346 326.173,192.677 326.988,192.677C327.89,192.677 328.242,193.258 327.888,194.165C327.569,194.984 326.902,195.654 326.407,195.654C325.911,195.654 325.506,194.984 325.506,194.165Z" style="fill:rgb(191,191,191);"/>
        </g>
        <g transform="matrix(1,0,0,1,13.1961,3.45705)">
            <path class="country-path" d="M286.162,63.245C286.162,61.727 290.305,59.663 292.502,60.087C293.177,60.217 293.665,59.542 293.588,58.587C293.511,57.632 293.82,56.85 294.275,56.85C294.729,56.85 295.246,55.88 295.424,54.695C295.823,52.023 298.256,51.048 298.3,53.542C298.33,55.257 298.408,55.263 299.661,53.64C301.048,51.843 302.303,52.268 302.303,54.535C302.303,55.848 300.445,57.96 296.774,60.82C295.019,62.188 294.923,62.152 295.6,60.379C296.319,58.498 296.286,58.495 294.276,60.285C293.143,61.294 292.215,61.742 292.215,61.28C292.215,60.818 291.648,61.133 290.954,61.98C289.084,64.264 286.162,65.035 286.162,63.245Z" style="fill:rgb(191,191,191);"/>
        </g>
        <g transform="matrix(1,0,0,1,13.1961,3.45705)">
            <path class="country-path" d="M290.695,56.226C292.313,53.796 292.301,53.758 290.269,54.828C288.729,55.638 288.18,55.633 288.18,54.807C288.18,54.191 289.088,53.454 290.197,53.168C291.307,52.883 292.26,52.143 292.316,51.524C292.371,50.906 292.753,51.516 293.164,52.881C293.576,54.245 293.534,55.849 293.072,56.445C292.61,57.041 292.436,57.729 292.685,57.974C292.934,58.219 292.213,58.488 291.084,58.571C289.119,58.717 289.103,58.616 290.695,56.226Z" style="fill:rgb(191,191,191);"/>
        </g>
        <g transform="matrix(1,0,0,1,13.1961,3.45705)">
            <path class="country-path" d="M310.245,40.047C311.721,39.269 312.325,39.369 312.751,40.461C313.059,41.252 312.87,42.168 312.331,42.496C311.791,42.825 311.57,43.443 311.839,43.872C312.108,44.3 311.186,45.162 309.79,45.788C306.704,47.171 309.175,40.61 310.245,40.047Z" style="fill:rgb(191,191,191);"/>
        </g>
        <g transform="matrix(1,0,0,1,13.1961,3.45705)">
            <path class="country-path" d="M321.088,39.604C320.305,36.538 321.236,34.024 323.153,34.024C324.226,34.024 324.535,35.001 324.306,37.669C323.939,41.944 321.984,43.12 321.088,39.604Z" style="fill:rgb(191,191,191);"/>
        </g>
        <g transform="matrix(1,0,0,1,13.1961,3.45705)">
            <path class="country-path" d="M315.171,36.505C315.436,35.14 316.006,34.024 316.436,34.024C317.82,34.024 318.324,36.722 317.155,37.873C315.346,39.652 314.652,39.174 315.171,36.505Z" style="fill:rgb(191,191,191);"/>
        </g>
        <g transform="matrix(1,0,0,1,13.1961,3.45705)">
            <path class="country-path" d="M319.453,31.543C318.425,30.324 318.493,30.054 319.834,30.054C320.734,30.054 321.478,29.496 321.486,28.814C321.497,27.936 321.765,27.982 322.402,28.972C323.36,30.462 322.781,33.032 321.486,33.032C321.059,33.032 320.144,32.362 319.453,31.543Z" style="fill:rgb(191,191,191);"/>
        </g>
        <g transform="matrix(1,0,0,1,13.1961,3.45705)">
            <path class="country-path" d="M354.166,16.78C353.323,14.619 353.913,14.039 355.792,15.181C356.945,15.882 357.001,16.34 356.048,17.278C355.094,18.215 354.684,18.107 354.166,16.78Z" style="fill:rgb(191,191,191);"/>
        </g>
    </g>
</svg>
