<?xml version="1.0" encoding="UTF-8" standalone="no"?>
<!DOCTYPE svg PUBLIC "-//W3C//DTD SVG 1.1//EN" "http://www.w3.org/Graphics/SVG/1.1/DTD/svg11.dtd">
<svg width="100%" height="100%" viewBox="0 0 218 403" version="1.1" xmlns="http://www.w3.org/2000/svg" xmlns:xlink="http://www.w3.org/1999/xlink" xml:space="preserve" xmlns:serif="http://www.serif.com/" style="fill-rule:evenodd;clip-rule:evenodd;stroke-linecap:round;stroke-miterlimit:1;">
    <g transform="matrix(1,0,0,1,-2536.4,-272.862)">
        <g transform="matrix(1,0,0,1,469.806,9.42161)">
            <g id="Smartphone-Heart" transform="matrix(1.10578,0,0,1.10578,-256.425,-49.1363)">
                <g transform="matrix(1,0,0,1.0607,-399.729,-28.7867)">
                    <path d="M2693.71,323.776C2693.71,308.973 2680.96,296.955 2665.26,296.955L2532.49,296.955C2516.79,296.955 2504.04,308.973 2504.04,323.776L2504.04,606.38C2504.04,621.183 2516.79,633.201 2532.49,633.201L2665.26,633.201C2680.96,633.201 2693.71,621.183 2693.71,606.38L2693.71,323.776Z" style="fill:none;stroke:rgb(216,95,29);stroke-width:4.83px;"/>
                </g>
                <g transform="matrix(1.45173,0,0,1.36499,-1686.09,-124.833)">
                    <ellipse cx="2696.26" cy="316.715" rx="2.469" ry="2.626" style="fill:rgb(216,95,29);"/>
                </g>
                <g transform="matrix(1,0,0,1,-469.806,-9.42161)">
                    <path d="M2645.15,318.275L2679.99,318.275" style="fill:none;stroke:rgb(216,95,29);stroke-width:4.97px;"/>
                </g>
                <g id="heartbeat" transform="matrix(3.5564,0,0,3.5564,2149.36,414.734)">
                    <path d="M20,16L24.766,16C24.579,16.203 24.453,16.313 24.422,16.344L14.688,25.719C14.501,25.906 14.25,26 14,26C13.75,26 13.5,25.906 13.312,25.719L3.562,16.313C3.531,16.297 3.406,16.188 3.234,16L9,16C9.453,16 9.859,15.687 9.969,15.25L11.063,10.859L14.032,21.281C14.157,21.703 14.548,22 15.001,22C15.439,22 15.829,21.703 15.954,21.281L18.235,13.703L19.11,15.453C19.282,15.781 19.626,16 20.001,16L20,16ZM28,9.312C28,11.109 27.219,12.749 26.391,14L20.625,14L18.891,10.547C18.719,10.188 18.313,9.969 17.922,10C17.5,10.047 17.156,10.313 17.047,10.719L15.031,17.438L11.968,6.719C11.843,6.297 11.452,6 10.984,6C10.531,6 10.14,6.313 10.031,6.75L8.218,14L1.609,14C0.781,12.75 -0,11.109 -0,9.312C-0,4.734 2.797,1.999 7.469,1.999C10.203,1.999 12.766,4.155 14,5.374C15.234,4.155 17.797,1.999 20.531,1.999C25.203,1.999 28,4.733 28,9.312Z" style="fill:rgb(216,95,29);fill-rule:nonzero;"/>
                </g>
            </g>
        </g>
    </g>
</svg>
