<?xml version="1.0" encoding="UTF-8" standalone="no"?>
<!DOCTYPE svg PUBLIC "-//W3C//DTD SVG 1.1//EN" "http://www.w3.org/Graphics/SVG/1.1/DTD/svg11.dtd">
<svg width="100%" height="100%" viewBox="0 0 365 305" version="1.1" xmlns="http://www.w3.org/2000/svg" xmlns:xlink="http://www.w3.org/1999/xlink" xml:space="preserve" xmlns:serif="http://www.serif.com/" style="fill-rule:evenodd;clip-rule:evenodd;stroke-linecap:round;stroke-linejoin:round;stroke-miterlimit:1.5;">
    <g transform="matrix(1,0,0,1,-17.607,-570.954)">
        <g transform="matrix(0.694157,0,0,0.728037,68.4795,142.474)">
            <g id="Homeoffice">
                <g transform="matrix(1.4406,0,0,1.37356,-98.6513,-195.696)">
                    <path d="M336.483,872.273L63.793,872.273L63.793,718.065L200,603.656L336.024,717.452L336.483,872.273Z" style="fill:none;stroke:rgb(234,86,0);stroke-width:6px;"/>
                </g>
                <g transform="matrix(1.4406,0,0,1.37356,-98.6513,-195.696)">
                    <path d="M302.19,785.595L98.231,785.595" style="fill:none;stroke:rgb(234,86,0);stroke-width:6px;"/>
                </g>
                <g transform="matrix(1.4406,0,0,1.37356,-98.6513,-195.696)">
                    <path d="M125.375,872.273L125.375,785.595" style="fill:none;stroke:rgb(234,86,0);stroke-width:6px;"/>
                </g>
                <g transform="matrix(1.4406,0,0,1.37356,-98.6513,-195.696)">
                    <path d="M274.811,785.595L274.811,872.273" style="fill:none;stroke:rgb(234,86,0);stroke-width:6px;"/>
                </g>
                <g transform="matrix(1.4406,0,0,1.37356,-98.6513,-195.696)">
                    <path d="M240.116,785.595L240.116,735.275L158.651,735.275L158.651,785.595" style="fill:none;stroke:rgb(234,86,0);stroke-width:6px;"/>
                </g>
                <g transform="matrix(1.4406,0,0,1.37356,-97.1306,-195.696)">
                    <path d="M177.496,785.595C177.496,785.595 164.989,803.176 164.96,813.318C164.923,825.767 177.276,860.286 177.276,860.286C177.276,860.286 169.893,865.377 172.579,868.794C175.28,872.229 194.576,868.378 194.663,863.623C194.899,850.729 182.312,821.96 184.769,812.74C186.621,805.79 195.285,799.254 198.328,796.356" style="fill:none;stroke:rgb(234,86,0);stroke-width:6px;"/>
                </g>
                <g transform="matrix(-1.4406,0,0,1.37356,474.289,-195.696)">
                    <path d="M177.496,785.595C177.496,785.595 164.989,803.176 164.96,813.318C164.923,825.767 177.276,860.286 177.276,860.286C177.276,860.286 169.893,865.377 172.579,868.794C175.28,872.229 194.576,868.378 194.663,863.623C194.899,850.729 182.312,821.96 184.769,812.74C186.621,805.79 195.285,799.254 198.328,796.356" style="fill:none;stroke:rgb(234,86,0);stroke-width:6px;"/>
                </g>
                <g transform="matrix(1.4406,0,0,1.37356,-98.6513,-195.538)">
                    <path d="M158.651,750.669C158.651,750.669 140.41,777.868 159.286,785.48" style="fill:none;stroke:rgb(234,86,0);stroke-width:5px;"/>
                </g>
                <g transform="matrix(-1.4406,0,0,1.37356,475.425,-195.538)">
                    <path d="M158.651,750.669C158.651,750.669 140.41,777.868 159.286,785.48" style="fill:none;stroke:rgb(234,86,0);stroke-width:5px;"/>
                </g>
                <g transform="matrix(1.4406,0,0,1.37356,-98.6513,-195.696)">
                    <path d="M169.108,735.275C169.108,735.275 176.466,728.001 181.208,726.42C189.352,723.705 206.503,723.387 218.149,726.42C223.029,727.69 230.414,735.275 230.414,735.275" style="fill:none;stroke:rgb(234,86,0);stroke-width:5px;"/>
                </g>
                <g transform="matrix(1.91293,0,0,1.43647,-195.828,-240.895)">
                    <ellipse cx="200.959" cy="698.352" rx="12.75" ry="20.062" style="fill:none;stroke:rgb(234,86,0);stroke-width:4.18px;"/>
                </g>
                <g transform="matrix(1.4406,0,0,1.37356,-98.6513,-195.696)">
                    <path d="M182.542,695.387C182.542,695.387 187.495,698.446 192.963,696.399C197.203,694.812 199.721,690.25 204.515,690.29C209.94,690.335 216.245,698.151 215.107,693.565C211.219,677.901 187.961,673.037 182.542,695.387Z" style="fill:rgb(234,86,0);stroke:rgb(234,86,0);stroke-width:5px;"/>
                </g>
                <g transform="matrix(1.2815,0,0,1.27037,-54.4759,-115.271)">
                    <rect x="261.149" y="757.317" width="16.523" height="22.114" style="fill:rgb(234,86,0);stroke:rgb(234,86,0);stroke-width:5.51px;"/>
                </g>
                <g transform="matrix(1.4406,0,0,1.37356,-98.6513,-195.696)">
                    <path d="M277.672,762.87C292.076,758.874 292.558,780.075 277.122,775.92" style="fill:none;stroke:rgb(234,86,0);stroke-width:5px;"/>
                </g>
                <g transform="matrix(1.4406,0,0,1.37356,-98.6513,-195.696)">
                    <path d="M103.433,757.147L137.127,757.147" style="fill:none;stroke:rgb(234,86,0);stroke-width:4px;"/>
                </g>
                <g transform="matrix(1.4406,0,0,1.37356,-94.627,-185.97)">
                    <path d="M103.433,757.147L137.127,757.147" style="fill:none;stroke:rgb(234,86,0);stroke-width:4px;"/>
                </g>
                <g transform="matrix(1.4406,0,0,1.37356,-91.8107,-175.69)">
                    <path d="M103.433,757.147L137.127,757.147" style="fill:none;stroke:rgb(234,86,0);stroke-width:4px;"/>
                </g>
                <g transform="matrix(1.4406,0,0,1.37356,-97.1323,-165.801)">
                    <path d="M103.433,757.147L137.127,757.147" style="fill:none;stroke:rgb(234,86,0);stroke-width:4px;"/>
                </g>
                <g transform="matrix(1.45509,0,0,1.37356,-101.547,-195.696)">
                    <path d="M22.392,726.559L200,573.954L377.167,726.522" style="fill:none;stroke:rgb(234,86,0);stroke-width:5.97px;"/>
                </g>
                <g transform="matrix(1.4406,0,0,1.33049,-98.6513,-169.773)">
                    <path d="M76.26,680.274L76.26,601.91L102.629,601.91L102.864,658.356" style="fill:none;stroke:rgb(234,86,0);stroke-width:6.09px;"/>
                </g>
                <g id="dampf" transform="matrix(0.855193,0,0,0.815397,66.8826,223.516)">
                    <path d="M270.135,735.059C271.818,736.921 272.656,738.789 272.881,740.519C273.221,743.129 272.165,745.425 270.512,746.914C265.408,751.859 268.609,756.777 271.054,758.619" style="fill:none;stroke:rgb(234,86,0);stroke-width:3.37px;"/>
                </g>
                <g id="dampf1" serif:id="dampf" transform="matrix(0.855193,0,0,0.815397,59.4005,223.516)">
                    <path d="M270.135,735.059C271.818,736.921 272.656,738.789 272.881,740.519C273.221,743.129 272.165,745.425 270.512,746.914C265.408,751.859 268.609,756.777 271.054,758.619" style="fill:none;stroke:rgb(234,86,0);stroke-width:3.37px;"/>
                </g>
                <g id="dampf2" serif:id="dampf" transform="matrix(0.855193,0,0,0.815397,51.9183,223.516)">
                    <path d="M270.135,735.059C271.818,736.921 272.656,738.789 272.881,740.519C273.221,743.129 272.165,745.425 270.512,746.914C265.408,751.859 268.609,756.777 271.054,758.619" style="fill:none;stroke:rgb(234,86,0);stroke-width:3.37px;"/>
                </g>
            </g>
        </g>
    </g>
</svg>
