<?xml version="1.0" encoding="UTF-8" standalone="no"?>
<!DOCTYPE svg PUBLIC "-//W3C//DTD SVG 1.1//EN" "http://www.w3.org/Graphics/SVG/1.1/DTD/svg11.dtd">
<svg width="100%" height="100%" viewBox="0 0 386 289" version="1.1" xmlns="http://www.w3.org/2000/svg" xmlns:xlink="http://www.w3.org/1999/xlink" xml:space="preserve" xmlns:serif="http://www.serif.com/" style="fill-rule:evenodd;clip-rule:evenodd;stroke-linejoin:round;stroke-miterlimit:2;">
    <g transform="matrix(1,0,0,1,-1981.47,-261.707)">
        <g transform="matrix(1,0,0,1,-0.886,-0.0645372)">
            <g id="Game-Controller" serif:id="Game Controller">
                <g transform="matrix(1.707,0,0,1.707,-1532.79,-408.994)">
                    <path d="M2149.24,541.73C2140.12,553.869 2125.59,561.725 2109.25,561.725C2081.66,561.725 2059.25,539.321 2059.25,511.725C2059.25,484.13 2081.66,461.725 2109.25,461.725L2235.37,461.725C2262.96,461.725 2285.37,484.13 2285.37,511.725C2285.37,539.321 2262.96,561.725 2235.37,561.725C2219.03,561.725 2204.5,553.869 2195.38,541.73L2149.24,541.73Z" style="fill:rgb(216,95,29);"/>
                </g>
                <g transform="matrix(1,0,0,1,16.7469,-18.7483)">
                    <path d="M2032.03,468.251L2032.03,445.34C2032.03,442.029 2034.72,439.34 2038.03,439.34L2056.03,439.34C2059.34,439.34 2062.03,442.029 2062.03,445.34L2062.03,468.251L2084.94,468.251C2088.25,468.251 2090.94,470.94 2090.94,474.251L2090.94,492.251C2090.94,495.563 2088.25,498.251 2084.94,498.251L2062.03,498.251L2062.03,521.162C2062.03,524.474 2059.34,527.162 2056.03,527.162L2038.03,527.162C2034.72,527.162 2032.03,524.474 2032.03,521.162L2032.03,498.251L2009.12,498.251C2005.8,498.251 2003.12,495.563 2003.12,492.251L2003.12,474.251C2003.12,470.94 2005.8,468.251 2009.12,468.251L2032.03,468.251Z" style="fill:rgb(236,234,233);"/>
                </g>
                <g transform="matrix(1,0,0,1,-0.288033,-18.8129)">
                    <g transform="matrix(1.23783,0,0,1.23783,-559.8,73.1963)">
                        <circle cx="2303.09" cy="354.709" r="12.118" style="fill:rgb(236,234,233);"/>
                    </g>
                    <g transform="matrix(1.23783,0,0,1.23783,-530.871,44.2665)">
                        <circle cx="2303.09" cy="354.709" r="12.118" style="fill:rgb(236,234,233);"/>
                    </g>
                    <g transform="matrix(1.23783,0,0,1.23783,-559.8,15.3368)">
                        <circle cx="2303.09" cy="354.709" r="12.118" style="fill:rgb(236,234,233);"/>
                    </g>
                    <g transform="matrix(1.23783,0,0,1.23783,-588.73,44.2665)">
                        <circle cx="2303.09" cy="354.709" r="12.118" style="fill:rgb(236,234,233);"/>
                    </g>
                </g>
                <g transform="matrix(1,0,0,1,0.886,0.0645372)">
                    <path d="M2188.74,386.628C2190.29,388.568 2189.97,391.402 2188.03,392.953C2186.09,394.504 2183.26,394.188 2181.71,392.248C2181.71,392.248 2166.42,373.068 2160.93,353.78C2156.84,339.395 2158.17,325.105 2172.18,316.905C2189.45,306.805 2207.49,312.069 2225.08,317.967C2232.96,320.612 2240.75,323.324 2248.31,324.272C2255.14,325.129 2261.78,324.503 2268.08,320.645C2296.48,303.251 2277.76,270.262 2277.76,270.262C2276.55,268.093 2277.33,265.35 2279.5,264.141C2281.67,262.931 2284.42,263.711 2285.62,265.88C2285.62,265.88 2308.06,306.708 2272.78,328.319C2257.16,337.889 2239.89,332.427 2222.21,326.5C2207.08,321.424 2191.59,315.982 2176.73,324.674C2166.7,330.54 2166.66,341.025 2169.59,351.317C2174.63,369.039 2188.74,386.628 2188.74,386.628Z" style="fill:rgb(216,95,29);"/>
                </g>
            </g>
        </g>
    </g>
</svg>
