<?xml version="1.0" encoding="UTF-8" standalone="no"?>
<!DOCTYPE svg PUBLIC "-//W3C//DTD SVG 1.1//EN" "http://www.w3.org/Graphics/SVG/1.1/DTD/svg11.dtd">
<svg width="100%" height="100%" viewBox="0 0 376 232" version="1.1" xmlns="http://www.w3.org/2000/svg" xmlns:xlink="http://www.w3.org/1999/xlink" xml:space="preserve" xmlns:serif="http://www.serif.com/" style="fill-rule:evenodd;clip-rule:evenodd;stroke-linecap:round;stroke-linejoin:round;stroke-miterlimit:1.5;">
    <g transform="matrix(1,0,0,1,-564.289,-516.298)">
        <g transform="matrix(1.33579,0,0,1.58085,-185.944,-257.54)">
            <g transform="matrix(0.852496,0,0,0.504729,14.3019,237.706)">
                <ellipse cx="738.6" cy="572.469" rx="38.356" ry="69.736" style="fill:none;stroke:rgb(255,222,203);stroke-width:6.25px;"/>
            </g>
        </g>
        <g transform="matrix(1.33579,0,0,1.58085,-185.944,-257.54)">
            <g transform="matrix(0.574605,0,0,0.485532,222.884,251.436)">
                <path d="M688.888,639.319C688.888,639.319 689.72,642.737 675.894,652.264C664.309,660.248 620.631,661.704 599.077,700.187C587.261,721.284 597.751,771.261 599.663,785.945C618.438,785.945 668.053,785.592 709.278,785.592" style="fill:none;stroke:rgb(255,222,203);stroke-width:8px;"/>
            </g>
        </g>
        <g transform="matrix(1.33579,0,0,1.58085,-185.944,-257.54)">
            <g transform="matrix(-0.574605,0,0,0.485532,1065.16,251.436)">
                <path d="M690.356,639.319C690.356,639.319 689.72,642.737 675.894,652.264C664.309,660.248 620.631,661.704 599.077,700.187C587.261,721.284 597.751,771.261 599.663,785.945C618.438,785.945 668.053,785.592 709.278,785.592" style="fill:none;stroke:rgb(255,222,203);stroke-width:8px;"/>
            </g>
        </g>
        <g transform="matrix(1.33579,0,0,1.58085,-185.944,-257.54)">
            <g transform="matrix(0.574605,0,0,0.485532,222.884,251.436)">
                <path d="M688.888,639.319L721.674,669.077C717.031,676.136 711.311,686.199 704.924,698.125L674.667,654.4" style="fill:none;stroke:rgb(255,222,203);stroke-width:8px;"/>
            </g>
        </g>
        <g transform="matrix(1.33579,0,0,1.58085,-185.944,-257.54)">
            <g transform="matrix(-0.574605,0,0,0.485532,1064.32,251.436)">
                <path d="M688.888,639.319L721.674,669.077C717.031,676.136 711.311,686.199 704.924,698.125L674.667,654.4" style="fill:none;stroke:rgb(255,222,203);stroke-width:8px;"/>
            </g>
        </g>
        <g transform="matrix(1.33579,0,0,1.58085,-185.944,-257.54)">
            <g transform="matrix(0.574605,0,0,0.485532,222.884,251.436)">
                <path d="M744.324,671.598L740.123,694.357L725.896,694.357L721.674,671.614L744.324,671.598ZM725.977,698.125L740.123,698.125L752,770.26L733.038,788.368L714.194,769.622L725.977,698.125Z" style="fill:none;stroke:rgb(255,222,203);stroke-width:8px;"/>
            </g>
        </g>
        <g transform="matrix(1.33579,0,0,1.58085,-185.944,-257.54)">
            <g transform="matrix(0.574605,0,0,0.485532,222.884,251.436)">
                <path d="M635.474,722.361L678.749,722.361" style="fill:none;stroke:rgb(255,222,203);stroke-width:8px;"/>
            </g>
        </g>
        <g transform="matrix(1.33579,0,0,1.58085,-185.944,-257.54)">
            <g transform="matrix(0.574605,0,0,0.485532,222.884,251.436)">
                <path d="M789.707,722.361L831.583,722.361" style="fill:none;stroke:rgb(255,222,203);stroke-width:8px;"/>
            </g>
        </g>
        <g transform="matrix(1.33579,0,0,1.58085,-185.944,-257.54)">
            <g transform="matrix(0.574605,0,0,0.409533,222.386,306.335)">
                <path d="M806.258,722.361L806.258,711.238" style="fill:none;stroke:rgb(255,222,203);stroke-width:8.65px;"/>
            </g>
        </g>
        <g transform="matrix(1.33579,0,0,1.58085,-185.944,-257.54)">
            <g transform="matrix(0.857047,0,0,0.691711,46.9999,120.375)">
                <rect x="776.582" y="538.922" width="149.143" height="96.846" style="fill:none;stroke:rgb(255,222,203);stroke-width:5.36px;"/>
            </g>
        </g>
        <g transform="matrix(1.33579,0,0,1.58085,-185.944,-257.54)">
            <g id="Kurve" transform="matrix(0.74862,0,0,0.295041,141.401,368.303)">
                <path d="M781.076,617.462L781.076,598.103" style="fill:none;stroke:rgb(255,222,203);stroke-width:7.69px;"/>
            </g>
        </g>
        <g transform="matrix(1.33579,0,0,1.58085,-185.944,-257.54)">
            <g id="Kurve1" serif:id="Kurve" transform="matrix(0.74862,0,0,0.272246,142.143,382.378)">
                <path d="M801.504,617.462L801.504,585.993" style="fill:none;stroke:rgb(255,222,203);stroke-width:7.79px;"/>
            </g>
        </g>
        <g transform="matrix(1.33579,0,0,1.58085,-185.944,-257.54)">
            <g id="Kurve2" serif:id="Kurve" transform="matrix(0.74862,0,0,0.225487,143.009,411.722)">
                <path d="M821.768,615.369L821.768,564.708" style="fill:none;stroke:rgb(255,222,203);stroke-width:7.99px;"/>
            </g>
        </g>
        <g transform="matrix(1.33579,0,0,1.58085,-185.944,-257.54)">
            <g id="Kurve3" serif:id="Kurve" transform="matrix(0.74862,0,0,0.256835,143.901,391.894)">
                <path d="M841.996,617.462L841.996,550.747" style="fill:none;stroke:rgb(255,222,203);stroke-width:7.86px;"/>
            </g>
        </g>
        <g transform="matrix(1.33579,0,0,1.58085,-185.944,-257.54)">
            <g id="Kurve4" serif:id="Kurve" transform="matrix(0.74862,0,0,0.385253,159.936,312.6)">
                <path d="M841.996,617.462L841.996,550.747" style="fill:none;stroke:rgb(255,222,203);stroke-width:7.25px;"/>
            </g>
        </g>
        <g transform="matrix(1.33579,0,0,1.58085,-185.944,-257.54)">
            <g id="Kurve5" serif:id="Kurve" transform="matrix(0.74862,0,0,0.513671,175.971,233.307)">
                <path d="M841.996,617.462L841.996,550.747" style="fill:none;stroke:rgb(255,222,203);stroke-width:6.59px;"/>
            </g>
        </g>
        <g transform="matrix(1.33579,0,0,1.58085,-185.944,-257.54)">
            <g id="Kurve6" serif:id="Kurve" transform="matrix(0.74862,0,0,0.684894,192.006,127.583)">
                <path d="M841.996,617.462L841.996,550.747" style="fill:none;stroke:rgb(255,222,203);stroke-width:5.76px;"/>
            </g>
        </g>
        <g transform="matrix(1.33579,0,0,1.58085,-185.944,-257.54)">
            <g id="Chart-kurve" transform="matrix(0.74862,0,0,0.632572,145.302,153.399)">
                <path d="M783.439,618.695L830.119,600.637L871.416,614.181L916.4,561.265" style="fill:none;stroke:rgb(234,86,0);stroke-width:6px;"/>
            </g>
        </g>
    </g>
</svg>
