<?xml version="1.0" encoding="UTF-8" standalone="no"?>
<!DOCTYPE svg PUBLIC "-//W3C//DTD SVG 1.1//EN" "http://www.w3.org/Graphics/SVG/1.1/DTD/svg11.dtd">
<svg width="100%" height="100%" viewBox="0 0 276 325" version="1.1" xmlns="http://www.w3.org/2000/svg" xmlns:xlink="http://www.w3.org/1999/xlink" xml:space="preserve" xmlns:serif="http://www.serif.com/" style="fill-rule:evenodd;clip-rule:evenodd;stroke-linecap:round;stroke-linejoin:round;stroke-miterlimit:1.5;">
    <g transform="matrix(1,0,0,1,-62.2407,-37.631)">
        <g>
            <g transform="matrix(0.380654,0,0,0.380654,126.274,109.487)">
                <circle cx="216.381" cy="195.166" r="101.168" style="fill:none;stroke:rgb(234,86,0);stroke-width:13.14px;"/>
            </g>
            <g transform="matrix(0.475384,0,0,0.558257,109.289,75.9816)">
                <rect x="185.991" y="173.507" width="46.001" height="39.172" style="fill:none;stroke:rgb(234,86,0);stroke-width:9.64px;"/>
            </g>
            <g transform="matrix(1,0,0,1,-8.48916,-16.2227)">
                <path d="M228.064,161.49L228.064,144.406L183.393,99.735L183.393,66.938" style="fill:none;stroke:rgb(234,86,0);stroke-width:5px;"/>
            </g>
            <g transform="matrix(1,0,0,1,-8.48916,-16.2227)">
                <path d="M228.064,144.406L265.185,107.284L265.185,66.938" style="fill:none;stroke:rgb(234,86,0);stroke-width:5px;"/>
            </g>
            <g transform="matrix(1,0,0,1,-8.48916,-16.2227)">
                <path d="M197.825,166.677L147.469,116.321L147.469,100.255" style="fill:none;stroke:rgb(234,86,0);stroke-width:5px;"/>
            </g>
            <g transform="matrix(1,0,0,1,-8.48916,-16.2227)">
                <path d="M183.393,181.425L163.314,161.346L83.814,161.346" style="fill:none;stroke:rgb(234,86,0);stroke-width:5px;"/>
            </g>
            <g transform="matrix(1,0,0,1,-8.48916,-16.2227)">
                <path d="M178.619,205.618L83.814,205.618" style="fill:none;stroke:rgb(234,86,0);stroke-width:5px;"/>
            </g>
            <g transform="matrix(1,0,0,1,-1.37644,-6.65374)">
                <path d="M183.393,218.575L151.901,250.067L76.702,250.067" style="fill:none;stroke:rgb(234,86,0);stroke-width:5px;"/>
            </g>
            <g transform="matrix(1,0,0,1,-8.48916,-16.2227)">
                <path d="M203.122,238.51L150.863,290.769L83.814,290.769" style="fill:none;stroke:rgb(234,86,0);stroke-width:5px;"/>
            </g>
            <g transform="matrix(1,0,0,1,-8.48916,-16.2227)">
                <path d="M217.129,238.51L217.129,306.714L191.239,332.605L191.239,365.507" style="fill:none;stroke:rgb(234,86,0);stroke-width:5px;"/>
            </g>
            <g transform="matrix(1,0,0,1,-8.48916,-16.2227)">
                <path d="M183.393,258.238L183.393,308.712L159.428,332.678L159.428,365.507" style="fill:none;stroke:rgb(234,86,0);stroke-width:5px;"/>
            </g>
            <g transform="matrix(1,0,0,1,-8.48916,-16.2227)">
                <path d="M234.604,234.321L234.604,264.64L325.947,320.733L343.302,302.009L343.748,190.061C343.748,190.061 323.538,101.732 232.664,112.522C187.969,117.83 148.85,175.323 155.702,214.946C157,222.458 200.36,235.889 205.419,236.694" style="fill:none;stroke:rgb(234,86,0);stroke-width:5px;"/>
            </g>
            <g transform="matrix(1,0,0,1,-8.48916,-16.2227)">
                <path d="M250.899,218.515L260.057,232.374L282.677,232.374" style="fill:none;stroke:rgb(234,86,0);stroke-width:5px;"/>
            </g>
            <g transform="matrix(1,0,0,1,-8.48916,-16.2227)">
                <path d="M343.748,193.788C340.875,193.121 320.408,190.144 309.646,180.044C302.885,173.7 299.936,165.101 298.134,155.71C297.549,152.663 288.435,150.059 278.396,144.858L278.328,218.862C278.328,218.862 283.165,232.105 292.029,238.51C311.089,250.142 319.51,258.585 320.729,273.115C322.48,293.972 322.987,294.042 322.987,294.042L343.302,302.009" style="fill:none;stroke:rgb(234,86,0);stroke-width:5px;"/>
            </g>
            <g transform="matrix(1,0,0,1,-8.48916,-16.2227)">
                <path d="M249.498,273.786L249.498,308.694L224.124,334.067L224.124,365.507" style="fill:none;stroke:rgb(234,86,0);stroke-width:5px;"/>
            </g>
            <g transform="matrix(1,0,0,1,-8.48916,-16.2227)">
                <path d="M343.302,216.026L306.33,205.718L306.33,223.433L324.832,233.951L343.571,233.951" style="fill:none;stroke:rgb(234,86,0);stroke-width:5px;"/>
            </g>
            <g transform="matrix(0.5,0,0,0.5,77.9152,17.1209)">
                <circle cx="193.978" cy="56.605" r="10.585" style="fill:none;stroke:rgb(234,86,0);stroke-width:10px;"/>
            </g>
            <g transform="matrix(0.5,0,0,0.5,41.9904,50.4377)">
                <circle cx="193.978" cy="56.605" r="10.585" style="fill:none;stroke:rgb(234,86,0);stroke-width:10px;"/>
            </g>
            <g transform="matrix(0.5,0,0,0.5,-26.956,116.821)">
                <circle cx="193.978" cy="56.605" r="10.585" style="fill:none;stroke:rgb(234,86,0);stroke-width:10px;"/>
            </g>
            <g transform="matrix(0.5,0,0,0.5,-26.956,161.092)">
                <circle cx="193.978" cy="56.605" r="10.585" style="fill:none;stroke:rgb(234,86,0);stroke-width:10px;"/>
            </g>
            <g transform="matrix(0.5,0,0,0.5,-26.956,215.111)">
                <circle cx="193.978" cy="56.605" r="10.585" style="fill:none;stroke:rgb(234,86,0);stroke-width:10px;"/>
            </g>
            <g transform="matrix(0.5,0,0,0.5,-26.956,246.244)">
                <circle cx="193.978" cy="56.605" r="10.585" style="fill:none;stroke:rgb(234,86,0);stroke-width:10px;"/>
            </g>
            <g transform="matrix(0.5,0,0,0.5,53.9494,326.274)">
                <circle cx="193.978" cy="56.605" r="10.585" style="fill:none;stroke:rgb(234,86,0);stroke-width:10px;"/>
            </g>
            <g transform="matrix(0.5,0,0,0.5,85.8461,326.274)">
                <circle cx="193.978" cy="56.605" r="10.585" style="fill:none;stroke:rgb(234,86,0);stroke-width:10px;"/>
            </g>
            <g transform="matrix(0.5,0,0,0.5,118.677,326.274)">
                <circle cx="193.978" cy="56.605" r="10.585" style="fill:none;stroke:rgb(234,86,0);stroke-width:10px;"/>
            </g>
            <g transform="matrix(0.5,0,0,0.5,159.707,17.1209)">
                <circle cx="193.978" cy="56.605" r="10.585" style="fill:none;stroke:rgb(234,86,0);stroke-width:10px;"/>
            </g>
        </g>
    </g>
</svg>
