<?xml version="1.0" encoding="UTF-8" standalone="no"?>
<!DOCTYPE svg PUBLIC "-//W3C//DTD SVG 1.1//EN" "http://www.w3.org/Graphics/SVG/1.1/DTD/svg11.dtd">
<svg width="100%" height="100%" viewBox="0 0 218 403" version="1.1" xmlns="http://www.w3.org/2000/svg" xmlns:xlink="http://www.w3.org/1999/xlink" xml:space="preserve" xmlns:serif="http://www.serif.com/" style="fill-rule:evenodd;clip-rule:evenodd;stroke-linecap:round;stroke-miterlimit:1;">
    <g transform="matrix(1,0,0,1,-2536.4,-272.862)">
        <g transform="matrix(1.10578,0,0,1.10578,213.381,-39.7147)">
            <g transform="matrix(1,0,0,1.0607,-399.729,-28.7867)">
                <path d="M2693.71,323.776C2693.71,308.973 2680.96,296.955 2665.26,296.955L2532.49,296.955C2516.79,296.955 2504.04,308.973 2504.04,323.776L2504.04,606.38C2504.04,621.183 2516.79,633.201 2532.49,633.201L2665.26,633.201C2680.96,633.201 2693.71,621.183 2693.71,606.38L2693.71,323.776Z" style="fill:none;stroke:rgb(216,95,29);stroke-width:4.83px;"/>
            </g>
        </g>
        <g transform="matrix(1.10578,0,0,1.10578,213.381,-39.7147)">
            <g transform="matrix(1.45173,0,0,1.36499,-1686.09,-124.833)">
                <ellipse cx="2696.26" cy="316.715" rx="2.469" ry="2.626" style="fill:rgb(216,95,29);"/>
            </g>
        </g>
        <g transform="matrix(1.10578,0,0,1.10578,213.381,-39.7147)">
            <g transform="matrix(1,0,0,1,-469.806,-9.42161)">
                <path d="M2645.15,318.275L2679.99,318.275" style="fill:none;stroke:rgb(216,95,29);stroke-width:4.97px;"/>
            </g>
        </g>
    </g>
</svg>
