<?xml version="1.0" encoding="UTF-8" standalone="no"?>
<!DOCTYPE svg PUBLIC "-//W3C//DTD SVG 1.1//EN" "http://www.w3.org/Graphics/SVG/1.1/DTD/svg11.dtd">
<svg class="technology-svg" width="100%" height="100%" viewBox="0 0 285 283" version="1.1" xmlns="http://www.w3.org/2000/svg" xmlns:xlink="http://www.w3.org/1999/xlink" xml:space="preserve" xmlns:serif="http://www.serif.com/" style="fill-rule:evenodd;clip-rule:evenodd;stroke-linecap:round;stroke-linejoin:round;stroke-miterlimit:1.5;">
    <g transform="matrix(1,0,0,1,-56.3292,-54.0045)">
        <g transform="matrix(1,0,0,1,61.0309,7.7935)">
            <g transform="matrix(1.25366,0,0,1.25366,-115.002,-61.8054)">
                <circle cx="201.012" cy="207.825" r="42.294" style="fill:none;stroke:rgb(216,95,29);stroke-width:2.39px;"/>
            </g>
        </g>
        <g transform="matrix(1,0,0,1,61.0309,7.7935)">
            <g id="data-path" transform="matrix(1,0,0,1,-61.0309,-7.7935)">
                <path d="M180.58,156.449L173.566,134.67L188.125,115.326L179.769,95.923L192.471,78.313L188.758,63.624" style="fill:none;stroke:rgb(216,95,29);stroke-width:2px;"/>
            </g>
        </g>
        <g transform="matrix(1,0,0,1,61.0309,7.7935)">
            <g id="data-path1" serif:id="data-path" transform="matrix(1,0,0,1,-61.0309,-7.7935)">
                <path d="M168.82,162.281L166.681,138.177L125.473,118.784" style="fill:none;stroke:rgb(216,95,29);stroke-width:2px;"/>
            </g>
        </g>
        <g transform="matrix(1,0,0,1,61.0309,7.7935)">
            <g id="data-path2" serif:id="data-path" transform="matrix(1,0,0,1,-61.0309,-7.7935)">
                <path d="M150.991,182.05L129.678,169.721L127.863,145.561L106.831,135.399L105.672,112.811L92.933,105.926" style="fill:none;stroke:rgb(216,95,29);stroke-width:2px;"/>
            </g>
        </g>
        <g transform="matrix(1,0,0,1,61.0309,7.7935)">
            <g id="data-path3" serif:id="data-path" transform="matrix(1,0,0,1,-61.0309,-7.7935)">
                <path d="M147.146,187.957L92.933,157.823" style="fill:none;stroke:rgb(216,95,29);stroke-width:2px;"/>
            </g>
        </g>
        <g transform="matrix(1,0,0,1,61.0309,7.7935)">
            <g id="data-path4" serif:id="data-path" transform="matrix(1,0,0,1,-61.0309,-7.7935)">
                <path d="M145.006,197.903L107.609,176.946" style="fill:none;stroke:rgb(216,95,29);stroke-width:2px;"/>
            </g>
        </g>
        <g transform="matrix(1,0,0,1,61.0309,7.7935)">
            <g id="data-path5" serif:id="data-path" transform="matrix(1,0,0,1,-61.0309,-7.7935)">
                <path d="M145.064,209.014L73.645,208.869L65.777,214.339" style="fill:none;stroke:rgb(216,95,29);stroke-width:2px;"/>
            </g>
        </g>
        <g transform="matrix(1,0,0,1,61.0309,7.7935)">
            <g id="data-path6" serif:id="data-path" transform="matrix(1,0,0,1,-61.0309,-7.7935)">
                <path d="M145.006,211.604L123.334,226.379L97.783,226.379" style="fill:none;stroke:rgb(216,95,29);stroke-width:2px;"/>
            </g>
        </g>
        <g transform="matrix(1,0,0,1,61.0309,7.7935)">
            <g id="data-path7" serif:id="data-path" transform="matrix(1,0,0,1,-61.0309,-7.7935)">
                <path d="M147.146,228.219L129.092,236.637L126.308,260.242L104.718,267.569L102.375,288.436L87.537,295.534" style="fill:none;stroke:rgb(216,95,29);stroke-width:2px;"/>
            </g>
        </g>
        <g transform="matrix(1,0,0,1,61.0309,7.7935)">
            <g id="data-path8" serif:id="data-path" transform="matrix(1,0,0,1,-61.0309,-7.7935)">
                <path d="M165.598,250.314L162.802,271.274L121.395,285.338" style="fill:none;stroke:rgb(216,95,29);stroke-width:2px;"/>
            </g>
        </g>
        <g transform="matrix(1,0,0,1,61.0309,7.7935)">
            <g id="data-path9" serif:id="data-path" transform="matrix(1,0,0,1,-61.0309,-7.7935)">
                <path d="M173.991,254.859L173.991,276.758L169.933,281.56" style="fill:none;stroke:rgb(216,95,29);stroke-width:2px;"/>
            </g>
        </g>
        <g transform="matrix(1,0,0,1,61.0309,7.7935)">
            <g id="data-path10" serif:id="data-path" transform="matrix(1,0,0,1,-61.0309,-7.7935)">
                <path d="M183.285,257.471L183.285,312.384" style="fill:none;stroke:rgb(216,95,29);stroke-width:2px;"/>
            </g>
        </g>
        <g transform="matrix(1,0,0,1,61.0309,7.7935)">
            <g id="data-path11" serif:id="data-path" transform="matrix(1,0,0,1,-61.0309,-7.7935)">
                <path d="M192.492,259.551L192.492,327.232" style="fill:none;stroke:rgb(216,95,29);stroke-width:2px;"/>
            </g>
        </g>
        <g transform="matrix(1,0,0,1,61.0309,7.7935)">
            <g id="data-path12" serif:id="data-path" transform="matrix(1,0,0,1,-61.0309,-7.7935)">
                <path d="M203.316,259.551L203.316,319.467" style="fill:none;stroke:rgb(216,95,29);stroke-width:2px;"/>
            </g>
        </g>
        <g transform="matrix(1,0,0,1,61.0309,7.7935)">
            <g id="data-path13" serif:id="data-path" transform="matrix(1,0,0,1,-61.0309,-7.7935)">
                <path d="M212.649,258.375L212.649,297.881" style="fill:none;stroke:rgb(216,95,29);stroke-width:2px;"/>
            </g>
        </g>
        <g transform="matrix(1,0,0,1,61.0309,7.7935)">
            <g id="data-path14" serif:id="data-path" transform="matrix(1,0,0,1,-61.0309,-7.7935)">
                <path d="M220.769,254.434L220.769,273.522L224.563,276.801" style="fill:none;stroke:rgb(216,95,29);stroke-width:2px;"/>
            </g>
        </g>
        <g transform="matrix(1,0,0,1,61.0309,7.7935)">
            <g id="data-path15" serif:id="data-path" transform="matrix(1,0,0,1,-61.0309,-7.7935)">
                <path d="M229.254,249.374L233.494,272.302L278.149,287.215" style="fill:none;stroke:rgb(216,95,29);stroke-width:2px;"/>
            </g>
        </g>
        <g transform="matrix(1,0,0,1,61.0309,7.7935)">
            <g id="data-path16" serif:id="data-path" transform="matrix(1,0,0,1,-61.0309,-7.7935)">
                <path d="M248.055,226.486L267.459,235.839L271.861,259.551L293.811,268.295L296.575,289.594L312.59,297.881" style="fill:none;stroke:rgb(216,95,29);stroke-width:2px;"/>
            </g>
        </g>
        <g transform="matrix(1,0,0,1,61.0309,7.7935)">
            <g id="data-path17" serif:id="data-path" transform="matrix(1,0,0,1,-61.0309,-7.7935)">
                <path d="M251.051,208.512L322.939,208.381L331.954,215.411" style="fill:none;stroke:rgb(216,95,29);stroke-width:2px;"/>
            </g>
        </g>
        <g transform="matrix(1,0,0,1,61.0309,7.7935)">
            <g id="data-path18" serif:id="data-path" transform="matrix(1,0,0,1,-61.0309,-7.7935)">
                <path d="M251.051,211.896L272.504,226.486L298.118,226.486" style="fill:none;stroke:rgb(216,95,29);stroke-width:2px;"/>
            </g>
        </g>
        <g transform="matrix(1,0,0,1,61.0309,7.7935)">
            <g id="data-path19" serif:id="data-path" transform="matrix(1,0,0,1,-61.0309,-7.7935)">
                <path d="M251.051,193.195L267.949,179.914L274.585,179.914" style="fill:none;stroke:rgb(216,95,29);stroke-width:2px;"/>
            </g>
        </g>
        <g transform="matrix(1,0,0,1,61.0309,7.7935)">
            <g id="data-path20" serif:id="data-path" transform="matrix(0.999864,-0.0164621,0.0164621,0.999864,-63.5674,-4.19005)">
                <path d="M217.611,155.873L234.041,143.466L234.113,139.096" style="fill:none;stroke:rgb(216,95,29);stroke-width:2px;"/>
            </g>
        </g>
        <g transform="matrix(1,0,0,1,61.0309,7.7935)">
            <g id="data-path21" serif:id="data-path" transform="matrix(0.999982,0.00596538,-0.00596538,0.999982,-59.928,-9.26996)">
                <path d="M248.055,184.149L291.503,149.785" style="fill:none;stroke:rgb(216,95,29);stroke-width:2px;"/>
            </g>
        </g>
        <g transform="matrix(1,0,0,1,61.0309,7.7935)">
            <g id="data-path22" serif:id="data-path" transform="matrix(0.999977,0.00682308,-0.00682308,0.999977,-59.8275,-9.43437)">
                <path d="M241.088,175.557L296.786,131.425" style="fill:none;stroke:rgb(216,95,29);stroke-width:2px;"/>
            </g>
        </g>
        <g transform="matrix(1,0,0,1,61.0309,7.7935)">
            <g id="data-path23" serif:id="data-path" transform="matrix(0.999991,0.00423663,-0.00423663,0.999991,-60.3215,-8.78354)">
                <path d="M234.041,166.967L283.484,127.999" style="fill:none;stroke:rgb(216,95,29);stroke-width:2px;"/>
            </g>
        </g>
        <g transform="matrix(1,0,0,1,61.0309,7.7935)">
            <g id="data-path24" serif:id="data-path" transform="matrix(0.999679,-0.0253222,0.0253222,0.999679,-65.0396,-2.03234)">
                <path d="M225.474,161.162L258.763,135.573" style="fill:none;stroke:rgb(216,95,29);stroke-width:2px;"/>
            </g>
        </g>
        <g transform="matrix(1,0,0,1,61.0309,7.7935)">
            <g id="data-path25" serif:id="data-path" transform="matrix(1,0,0,1,-61.0309,-7.7935)">
                <path d="M207.297,153.682L221.467,135.045L203.627,94.133" style="fill:none;stroke:rgb(216,95,29);stroke-width:2px;"/>
            </g>
        </g>
        <g transform="matrix(1,0,0,1,61.0309,7.7935)">
            <g transform="matrix(0.847187,0,0,0.847187,-45.8885,7.33283)">
                <circle cx="86.932" cy="103.991" r="5.139" style="fill:none;stroke:rgb(216,95,29);stroke-width:2px;"/>
            </g>
        </g>
        <g transform="matrix(1,0,0,1,61.0309,7.7935)">
            <g transform="matrix(0.847187,0,0,0.847187,-13.67,21.0841)">
                <circle cx="86.932" cy="103.991" r="5.139" style="fill:rgb(216,95,29);stroke:rgb(216,95,29);stroke-width:2px;"/>
            </g>
        </g>
        <g transform="matrix(1,0,0,1,61.0309,7.7935)">
            <g transform="matrix(0.847187,0,0,0.847187,52.8849,-36.6877)">
                <circle cx="86.932" cy="103.991" r="5.139" style="fill:rgb(216,95,29);stroke:rgb(216,95,29);stroke-width:2px;"/>
            </g>
        </g>
        <g transform="matrix(1,0,0,1,61.0309,7.7935)">
            <g transform="matrix(0.847187,0,0,0.847187,66.7801,-5.96266)">
                <circle cx="86.932" cy="103.991" r="5.139" style="fill:rgb(216,95,29);stroke:rgb(216,95,29);stroke-width:2px;"/>
            </g>
        </g>
        <g transform="matrix(1,0,0,1,61.0309,7.7935)">
            <g transform="matrix(0.847187,0,0,0.847187,99.4276,38.9109)">
                <circle cx="86.932" cy="103.991" r="5.139" style="fill:rgb(216,95,29);stroke:rgb(216,95,29);stroke-width:2px;"/>
            </g>
        </g>
        <g transform="matrix(1,0,0,1,61.0309,7.7935)">
            <g transform="matrix(0.847187,0,0,0.847187,126.13,35.9129)">
                <circle cx="86.932" cy="103.991" r="5.139" style="fill:rgb(216,95,29);stroke:rgb(216,95,29);stroke-width:2px;"/>
            </g>
        </g>
        <g transform="matrix(1,0,0,1,61.0309,7.7935)">
            <g transform="matrix(0.847187,0,0,0.847187,152.237,29.2523)">
                <circle cx="86.932" cy="103.991" r="5.139" style="fill:rgb(216,95,29);stroke:rgb(216,95,29);stroke-width:2px;"/>
            </g>
        </g>
        <g transform="matrix(1,0,0,1,61.0309,7.7935)">
            <g transform="matrix(0.847187,0,0,0.847187,165.98,32.8301)">
                <circle cx="86.932" cy="103.991" r="5.139" style="fill:rgb(216,95,29);stroke:rgb(216,95,29);stroke-width:2px;"/>
            </g>
        </g>
        <g transform="matrix(1,0,0,1,61.0309,7.7935)">
            <g transform="matrix(0.847187,0,0,0.847187,160.526,50.8287)">
                <circle cx="86.932" cy="103.991" r="5.139" style="fill:rgb(216,95,29);stroke:rgb(216,95,29);stroke-width:2px;"/>
            </g>
        </g>
        <g transform="matrix(1,0,0,1,61.0309,7.7935)">
            <g transform="matrix(0.847187,0,0,0.847187,143.345,84.1097)">
                <circle cx="86.932" cy="103.991" r="5.139" style="fill:rgb(216,95,29);stroke:rgb(216,95,29);stroke-width:2px;"/>
            </g>
        </g>
        <g transform="matrix(1,0,0,1,61.0309,7.7935)">
            <g transform="matrix(0.847187,0,0,0.847187,201.261,122.825)">
                <circle cx="86.932" cy="103.991" r="5.139" style="fill:rgb(216,95,29);stroke:rgb(216,95,29);stroke-width:2px;"/>
            </g>
        </g>
        <g transform="matrix(1,0,0,1,61.0309,7.7935)">
            <g transform="matrix(0.847187,0,0,0.847187,167.674,130.8)">
                <circle cx="86.932" cy="103.991" r="5.139" style="fill:rgb(216,95,29);stroke:rgb(216,95,29);stroke-width:2px;"/>
            </g>
        </g>
        <g transform="matrix(1,0,0,1,61.0309,7.7935)">
            <g transform="matrix(0.847187,0,0,0.847187,182.346,202.811)">
                <circle cx="86.932" cy="103.991" r="5.139" style="fill:rgb(216,95,29);stroke:rgb(216,95,29);stroke-width:2px;"/>
            </g>
        </g>
        <g transform="matrix(1,0,0,1,61.0309,7.7935)">
            <g transform="matrix(0.847187,0,0,0.847187,92.3906,183.174)">
                <circle cx="86.932" cy="103.991" r="5.139" style="fill:rgb(216,95,29);stroke:rgb(216,95,29);stroke-width:2px;"/>
            </g>
        </g>
        <g transform="matrix(1,0,0,1,61.0309,7.7935)">
            <g transform="matrix(0.847187,0,0,0.847187,68.9224,227.114)">
                <circle cx="86.932" cy="103.991" r="5.139" style="fill:rgb(216,95,29);stroke:rgb(216,95,29);stroke-width:2px;"/>
            </g>
        </g>
        <g transform="matrix(1,0,0,1,61.0309,7.7935)">
            <g transform="matrix(0.847187,0,0,0.847187,77.4648,206.188)">
                <circle cx="86.932" cy="103.991" r="5.139" style="fill:none;stroke:rgb(216,95,29);stroke-width:2px;"/>
            </g>
        </g>
        <g transform="matrix(1,0,0,1,61.0309,7.7935)">
            <g transform="matrix(0.847187,0,0,0.847187,148.116,192.214)">
                <circle cx="86.932" cy="103.991" r="5.139" style="fill:none;stroke:rgb(216,95,29);stroke-width:2px;"/>
            </g>
        </g>
        <g transform="matrix(1,0,0,1,61.0309,7.7935)">
            <g transform="matrix(0.847187,0,0,0.847187,57.6109,235.059)">
                <circle cx="86.932" cy="103.991" r="5.139" style="fill:rgb(216,95,29);stroke:rgb(216,95,29);stroke-width:2px;"/>
            </g>
        </g>
        <g transform="matrix(1,0,0,1,61.0309,7.7935)">
            <g transform="matrix(0.847187,0,0,0.847187,48.6476,220.941)">
                <circle cx="86.932" cy="103.991" r="5.139" style="fill:none;stroke:rgb(216,95,29);stroke-width:2px;"/>
            </g>
        </g>
        <g transform="matrix(1,0,0,1,61.0309,7.7935)">
            <g transform="matrix(0.847187,0,0,0.847187,32.5458,188.696)">
                <circle cx="86.932" cy="103.991" r="5.139" style="fill:rgb(216,95,29);stroke:rgb(216,95,29);stroke-width:2px;"/>
            </g>
        </g>
        <g transform="matrix(1,0,0,1,61.0309,7.7935)">
            <g transform="matrix(0.847187,0,0,0.847187,-50.8308,201.572)">
                <circle cx="86.932" cy="103.991" r="5.139" style="fill:rgb(216,95,29);stroke:rgb(216,95,29);stroke-width:2px;"/>
            </g>
        </g>
        <g transform="matrix(1,0,0,1,61.0309,7.7935)">
            <g transform="matrix(0.847187,0,0,0.847187,-41.2063,130.832)">
                <circle cx="86.932" cy="103.991" r="5.139" style="fill:rgb(216,95,29);stroke:rgb(216,95,29);stroke-width:2px;"/>
            </g>
        </g>
        <g transform="matrix(1,0,0,1,61.0309,7.7935)">
            <g transform="matrix(0.847187,0,0,0.847187,-73.1484,121.52)">
                <circle cx="86.932" cy="103.991" r="5.139" style="fill:none;stroke:rgb(216,95,29);stroke-width:2px;"/>
            </g>
        </g>
        <g transform="matrix(1,0,0,1,61.0309,7.7935)">
            <g transform="matrix(0.847187,0,0,0.847187,-18.2832,191.142)">
                <circle cx="86.932" cy="103.991" r="5.139" style="fill:none;stroke:rgb(216,95,29);stroke-width:2px;"/>
            </g>
        </g>
        <g transform="matrix(1,0,0,1,61.0309,7.7935)">
            <g transform="matrix(0.847187,0,0,0.847187,-45.9906,60.1873)">
                <circle cx="86.932" cy="103.991" r="5.139" style="fill:rgb(216,95,29);stroke:rgb(216,95,29);stroke-width:2px;"/>
            </g>
        </g>
        <g transform="matrix(1,0,0,1,61.0309,7.7935)">
            <g transform="matrix(0.847187,0,0,0.847187,-31.4451,79.582)">
                <circle cx="86.932" cy="103.991" r="5.139" style="fill:rgb(216,95,29);stroke:rgb(216,95,29);stroke-width:2px;"/>
            </g>
        </g>
    </g>
</svg>
