<?xml version="1.0" encoding="UTF-8" standalone="no"?>
<!DOCTYPE svg PUBLIC "-//W3C//DTD SVG 1.1//EN" "http://www.w3.org/Graphics/SVG/1.1/DTD/svg11.dtd">
<svg width="100%" height="100%" viewBox="0 0 1000 1000" version="1.1" xmlns="http://www.w3.org/2000/svg" xmlns:xlink="http://www.w3.org/1999/xlink" xml:space="preserve" xmlns:serif="http://www.serif.com/" style="fill-rule:evenodd;clip-rule:evenodd;stroke-linejoin:round;stroke-miterlimit:2;">
    <g transform="matrix(-820.641,-738.909,738.909,-820.641,905.102,823.851)">
        <g id="Ebene-1" serif:id="Ebene 1">
            <path d="M0.5,0.537C0.487,0.512 0.473,0.487 0.459,0.463C0.438,0.483 0.416,0.503 0.395,0.522C0.409,0.547 0.422,0.572 0.435,0.598C0.457,0.578 0.479,0.558 0.5,0.537ZM0.59,0.446C0.576,0.422 0.561,0.398 0.546,0.374C0.525,0.396 0.505,0.417 0.484,0.438C0.498,0.462 0.512,0.487 0.526,0.512C0.547,0.491 0.569,0.469 0.59,0.446ZM0.678,0.349C0.662,0.325 0.647,0.302 0.631,0.278C0.611,0.302 0.591,0.325 0.571,0.347C0.586,0.371 0.601,0.395 0.615,0.419C0.636,0.397 0.657,0.373 0.678,0.349ZM0.763,0.246C0.747,0.223 0.73,0.2 0.714,0.177C0.695,0.202 0.675,0.226 0.655,0.25C0.671,0.273 0.687,0.297 0.702,0.321C0.722,0.296 0.743,0.272 0.763,0.246ZM0.845,0.137C0.828,0.114 0.811,0.091 0.794,0.069C0.775,0.095 0.756,0.121 0.737,0.147C0.754,0.169 0.77,0.192 0.786,0.216C0.806,0.19 0.826,0.163 0.845,0.137ZM0.924,0.021C0.907,-0.001 0.889,-0.023 0.871,-0.045C0.853,-0.017 0.835,0.01 0.816,0.037C0.834,0.059 0.851,0.081 0.868,0.104C0.887,0.077 0.906,0.049 0.924,0.021ZM1,-0.101C0.982,-0.123 0.963,-0.144 0.945,-0.165C0.928,-0.136 0.91,-0.107 0.892,-0.079C0.911,-0.057 0.928,-0.035 0.946,-0.013C0.964,-0.042 0.982,-0.071 1,-0.101ZM0.442,0.434C0.427,0.41 0.413,0.386 0.398,0.363C0.377,0.383 0.357,0.402 0.336,0.421C0.351,0.444 0.365,0.469 0.379,0.493C0.4,0.474 0.421,0.454 0.442,0.434ZM0.528,0.345C0.513,0.322 0.498,0.299 0.482,0.276C0.462,0.297 0.442,0.318 0.422,0.339C0.437,0.362 0.452,0.385 0.466,0.409C0.487,0.388 0.508,0.367 0.528,0.345ZM0.612,0.251C0.596,0.228 0.58,0.205 0.564,0.183C0.545,0.206 0.525,0.228 0.506,0.25C0.521,0.273 0.537,0.296 0.552,0.319C0.573,0.297 0.593,0.274 0.612,0.251ZM0.694,0.15C0.678,0.127 0.661,0.105 0.644,0.084C0.625,0.108 0.606,0.132 0.587,0.155C0.604,0.177 0.62,0.2 0.636,0.222C0.656,0.199 0.675,0.175 0.694,0.15ZM0.773,0.043C0.756,0.021 0.738,-0 0.721,-0.021C0.703,0.004 0.684,0.03 0.666,0.054C0.683,0.076 0.7,0.098 0.717,0.12C0.736,0.095 0.755,0.069 0.773,0.043ZM0.849,-0.07C0.831,-0.092 0.813,-0.112 0.795,-0.133C0.777,-0.105 0.76,-0.079 0.742,-0.052C0.76,-0.032 0.778,-0.011 0.795,0.011C0.814,-0.016 0.832,-0.043 0.849,-0.07ZM0.38,0.335C0.365,0.312 0.349,0.29 0.334,0.267C0.314,0.287 0.295,0.306 0.275,0.324C0.29,0.346 0.305,0.369 0.319,0.393C0.339,0.374 0.36,0.355 0.38,0.335ZM0.922,-0.19C0.903,-0.21 0.884,-0.23 0.865,-0.25C0.849,-0.221 0.832,-0.193 0.815,-0.166C0.834,-0.145 0.852,-0.125 0.871,-0.104C0.888,-0.132 0.905,-0.161 0.922,-0.19ZM0.463,0.249C0.447,0.227 0.431,0.205 0.415,0.183C0.396,0.204 0.377,0.224 0.357,0.244C0.373,0.266 0.389,0.288 0.404,0.311C0.424,0.291 0.444,0.27 0.463,0.249ZM0.544,0.157C0.528,0.135 0.511,0.114 0.494,0.093C0.476,0.115 0.457,0.137 0.438,0.158C0.454,0.179 0.471,0.201 0.487,0.223C0.506,0.202 0.525,0.179 0.544,0.157ZM0.623,0.058C0.606,0.037 0.588,0.016 0.571,-0.004C0.553,0.02 0.535,0.043 0.516,0.066C0.533,0.086 0.55,0.108 0.567,0.129C0.586,0.106 0.605,0.082 0.623,0.058ZM0.699,-0.046C0.681,-0.067 0.663,-0.087 0.645,-0.107C0.628,-0.082 0.61,-0.057 0.592,-0.033C0.61,-0.013 0.628,0.008 0.645,0.029C0.663,0.004 0.681,-0.021 0.699,-0.046ZM0.772,-0.157C0.754,-0.177 0.735,-0.196 0.716,-0.215C0.699,-0.189 0.683,-0.163 0.665,-0.137C0.684,-0.118 0.702,-0.098 0.72,-0.077C0.738,-0.103 0.755,-0.13 0.772,-0.157ZM0.315,0.241C0.299,0.219 0.283,0.198 0.267,0.177C0.248,0.196 0.229,0.214 0.21,0.232C0.226,0.253 0.241,0.275 0.257,0.297C0.276,0.279 0.296,0.26 0.315,0.241ZM0.842,-0.273C0.823,-0.293 0.803,-0.312 0.784,-0.33C0.768,-0.302 0.752,-0.275 0.736,-0.248C0.755,-0.229 0.774,-0.209 0.793,-0.19C0.809,-0.217 0.826,-0.245 0.842,-0.273ZM0.395,0.157C0.379,0.136 0.362,0.115 0.345,0.095C0.327,0.115 0.308,0.135 0.29,0.154C0.306,0.175 0.322,0.196 0.338,0.218C0.357,0.198 0.377,0.178 0.395,0.157ZM0.474,0.068C0.457,0.047 0.439,0.027 0.422,0.007C0.404,0.029 0.386,0.05 0.367,0.071C0.384,0.091 0.401,0.111 0.418,0.132C0.437,0.111 0.455,0.09 0.474,0.068ZM0.55,-0.028C0.532,-0.048 0.514,-0.068 0.496,-0.087C0.478,-0.064 0.461,-0.041 0.443,-0.019C0.461,0 0.478,0.02 0.496,0.041C0.514,0.018 0.532,-0.005 0.55,-0.028ZM0.623,-0.13C0.604,-0.15 0.586,-0.168 0.567,-0.187C0.55,-0.162 0.533,-0.138 0.516,-0.115C0.535,-0.096 0.553,-0.077 0.571,-0.057C0.588,-0.081 0.606,-0.105 0.623,-0.13ZM0.693,-0.238C0.674,-0.257 0.655,-0.275 0.635,-0.293C0.619,-0.267 0.603,-0.242 0.587,-0.217C0.606,-0.198 0.624,-0.18 0.643,-0.16C0.66,-0.186 0.677,-0.212 0.693,-0.238ZM0.248,0.152C0.231,0.131 0.215,0.111 0.198,0.091C0.18,0.11 0.161,0.127 0.143,0.144C0.159,0.165 0.175,0.185 0.191,0.206C0.21,0.189 0.229,0.171 0.248,0.152ZM0.325,0.071C0.308,0.051 0.291,0.031 0.273,0.012C0.255,0.032 0.238,0.051 0.219,0.069C0.236,0.089 0.253,0.109 0.27,0.129C0.288,0.11 0.307,0.091 0.325,0.071ZM0.76,-0.352C0.74,-0.37 0.72,-0.388 0.7,-0.405C0.685,-0.377 0.67,-0.351 0.654,-0.324C0.674,-0.307 0.693,-0.289 0.712,-0.27C0.729,-0.297 0.744,-0.324 0.76,-0.352ZM0.4,-0.016C0.383,-0.036 0.365,-0.055 0.347,-0.073C0.329,-0.052 0.312,-0.032 0.294,-0.012C0.312,0.007 0.33,0.027 0.347,0.046C0.365,0.026 0.383,0.005 0.4,-0.016ZM0.474,-0.11C0.455,-0.129 0.437,-0.147 0.418,-0.165C0.401,-0.142 0.384,-0.12 0.367,-0.099C0.386,-0.081 0.404,-0.062 0.422,-0.042C0.439,-0.064 0.456,-0.087 0.474,-0.11ZM0.544,-0.209C0.525,-0.227 0.506,-0.245 0.487,-0.262C0.47,-0.238 0.454,-0.215 0.438,-0.192C0.457,-0.174 0.475,-0.156 0.494,-0.137C0.511,-0.161 0.528,-0.185 0.544,-0.209ZM0.612,-0.314C0.592,-0.332 0.572,-0.349 0.552,-0.365C0.537,-0.34 0.521,-0.315 0.506,-0.291C0.525,-0.274 0.544,-0.256 0.564,-0.238C0.58,-0.263 0.596,-0.288 0.612,-0.314ZM0.177,0.068C0.16,0.048 0.143,0.029 0.126,0.011C0.108,0.028 0.09,0.045 0.073,0.062C0.09,0.081 0.106,0.1 0.123,0.12C0.141,0.103 0.159,0.086 0.177,0.068ZM0.252,-0.011C0.235,-0.03 0.217,-0.048 0.199,-0.066C0.181,-0.047 0.164,-0.029 0.147,-0.011C0.164,0.008 0.182,0.027 0.199,0.046C0.217,0.027 0.235,0.009 0.252,-0.011ZM0.676,-0.425C0.656,-0.442 0.635,-0.459 0.615,-0.474C0.6,-0.448 0.585,-0.422 0.57,-0.396C0.591,-0.38 0.61,-0.363 0.63,-0.345C0.646,-0.371 0.661,-0.398 0.676,-0.425ZM0.325,-0.096C0.307,-0.114 0.288,-0.132 0.27,-0.149C0.253,-0.129 0.236,-0.109 0.219,-0.089C0.237,-0.071 0.255,-0.053 0.273,-0.034C0.291,-0.054 0.308,-0.075 0.325,-0.096ZM0.395,-0.186C0.376,-0.204 0.357,-0.221 0.338,-0.238C0.322,-0.216 0.306,-0.195 0.289,-0.174C0.308,-0.156 0.327,-0.139 0.345,-0.121C0.362,-0.142 0.379,-0.164 0.395,-0.186ZM0.463,-0.283C0.444,-0.3 0.424,-0.316 0.404,-0.332C0.389,-0.309 0.373,-0.286 0.357,-0.264C0.377,-0.248 0.396,-0.231 0.415,-0.213C0.431,-0.236 0.447,-0.259 0.463,-0.283ZM0.528,-0.385C0.508,-0.401 0.488,-0.417 0.468,-0.433C0.453,-0.408 0.438,-0.384 0.423,-0.36C0.443,-0.344 0.462,-0.328 0.482,-0.311C0.498,-0.335 0.513,-0.36 0.528,-0.385ZM0.105,-0.012C0.087,-0.03 0.069,-0.048 0.051,-0.065C0.034,-0.048 0.017,-0.032 -0,-0.016C0.018,0.002 0.035,0.02 0.052,0.039C0.07,0.023 0.087,0.006 0.105,-0.012ZM0.177,-0.088C0.159,-0.105 0.14,-0.122 0.122,-0.139C0.105,-0.121 0.088,-0.103 0.072,-0.086C0.09,-0.068 0.108,-0.051 0.126,-0.033C0.143,-0.05 0.16,-0.069 0.177,-0.088ZM0.59,-0.493C0.569,-0.509 0.549,-0.524 0.528,-0.539C0.514,-0.513 0.5,-0.487 0.485,-0.462C0.506,-0.447 0.526,-0.432 0.546,-0.415C0.561,-0.441 0.576,-0.467 0.59,-0.493ZM0.247,-0.17C0.228,-0.187 0.209,-0.203 0.19,-0.219C0.174,-0.2 0.158,-0.18 0.142,-0.162C0.16,-0.145 0.179,-0.128 0.197,-0.11C0.214,-0.13 0.231,-0.149 0.247,-0.17ZM0.315,-0.257C0.296,-0.274 0.276,-0.29 0.256,-0.305C0.241,-0.284 0.225,-0.263 0.209,-0.243C0.229,-0.227 0.248,-0.211 0.267,-0.194C0.283,-0.215 0.299,-0.236 0.315,-0.257ZM0.38,-0.351C0.361,-0.367 0.34,-0.382 0.32,-0.397C0.305,-0.374 0.29,-0.352 0.275,-0.331C0.295,-0.316 0.314,-0.3 0.334,-0.284C0.35,-0.306 0.365,-0.328 0.38,-0.351ZM0.443,-0.451C0.423,-0.466 0.402,-0.48 0.381,-0.495C0.367,-0.471 0.353,-0.447 0.338,-0.424C0.358,-0.41 0.379,-0.395 0.399,-0.379C0.414,-0.403 0.429,-0.426 0.443,-0.451ZM0.503,-0.556C0.481,-0.571 0.46,-0.584 0.439,-0.598C0.426,-0.573 0.412,-0.548 0.398,-0.523C0.419,-0.51 0.44,-0.495 0.46,-0.48C0.475,-0.505 0.489,-0.53 0.503,-0.556Z" style="fill:url(#_Linear1);fill-rule:nonzero;"/>
        </g>
    </g>
    <defs>
        <linearGradient id="_Linear1" x1="0" y1="0" x2="1" y2="0" gradientUnits="userSpaceOnUse" gradientTransform="matrix(1,0,0,-1,0,-2.22344e-08)"><stop offset="0" style="stop-color:white;stop-opacity:1"/><stop offset="0.03" style="stop-color:white;stop-opacity:1"/><stop offset="0.08" style="stop-color:rgb(255,251,248);stop-opacity:1"/><stop offset="0.16" style="stop-color:rgb(254,238,227);stop-opacity:1"/><stop offset="0.26" style="stop-color:rgb(252,217,193);stop-opacity:1"/><stop offset="0.38" style="stop-color:rgb(248,187,145);stop-opacity:1"/><stop offset="0.5" style="stop-color:rgb(242,145,84);stop-opacity:1"/><stop offset="0.64" style="stop-color:rgb(234,91,12);stop-opacity:1"/><stop offset="1" style="stop-color:rgb(234,91,12);stop-opacity:1"/></linearGradient>
    </defs>
</svg>
