

<?xml version="1.0" encoding="UTF-8" standalone="no"?><!DOCTYPE svg PUBLIC "-//W3C//DTD SVG 1.1//EN" "http://www.w3.org/Graphics/SVG/1.1/DTD/svg11.dtd">

<svg width="100%" height="100%" viewBox="0 0 1036 468" version="1.1" xmlns="http://www.w3.org/2000/svg" xmlns:xlink="http://www.w3.org/1999/xlink" xml:space="preserve" xmlns:serif="http://www.serif.com/" style="fill-rule:evenodd;clip-rule:evenodd;stroke-linejoin:round;stroke-miterlimit:2;"><rect id="ArtBoard2" x="-0" y="0" width="1035.05" height="467.509" style="fill:none;"/><g id="ArtBoard21" serif:id="ArtBoard2"><path id="viereck" d="M67.794,111.049l0.52,-22.175l26.091,-7.645l-1.104,22.363l-25.507,7.457Z" style="fill:#fef2ea;"/><path id="viereck1" serif:id="viereck" d="M949.701,68.781l-0.52,-22.175l-26.091,-7.645l1.104,22.363l25.507,7.457Z" style="fill:#fef2ea;"/><path id="viereck2" serif:id="viereck" d="M923.09,403.703l-0.52,22.175l-26.091,7.645l1.104,-22.363l25.507,-7.457Z" style="fill:#ea5b0c;"/><path id="viereck3" serif:id="viereck" d="M121.792,403.703l0.519,22.175l26.092,7.645l-1.104,-22.363l-25.507,-7.457Z" style="fill:#ea5b0c;"/><path id="viereck4" serif:id="viereck" d="M39.215,166.616l0.52,-22.175l26.091,-7.645l-1.104,22.364l-25.507,7.456Z" style="fill:#ea5b0c;"/><path id="viereck5" serif:id="viereck" d="M978.28,124.348l-0.52,-22.175l-26.091,-7.645l1.104,22.363l25.507,7.457Z" style="fill:#ea5b0c;"/><path id="viereck6" serif:id="viereck" d="M997.068,333.226l-0.52,22.175l-26.091,7.645l1.104,-22.363l25.507,-7.457Z" style="fill:#ea5b0c;"/><path id="viereck7" serif:id="viereck" d="M93.213,348.136l0.52,22.175l26.091,7.645l-1.104,-22.363l-25.507,-7.457Z" style="fill:#ea5b0c;"/><path id="viereck8" serif:id="viereck" d="M155.461,83.081l0.52,-22.175l26.092,-7.645l-1.104,22.364l-25.508,7.456Z" style="fill:#ea5b0c;"/><path id="viereck9" serif:id="viereck" d="M879.235,77.572l-0.52,-22.175l-26.091,-7.645l1.104,22.363l25.507,7.457Z" style="fill:#ea5b0c;"/><path id="viereck10" serif:id="viereck" d="M852.624,394.912l-0.52,22.175l-26.091,7.645l1.104,-22.363l25.507,-7.457Z" style="fill:#f9c5a1;"/><path id="viereck11" serif:id="viereck" d="M227.389,409.872l0.519,22.175l26.092,7.645l-1.104,-22.363l-25.507,-7.457Z" style="fill:#fef2ea;"/><path id="viereck12" serif:id="viereck" d="M345.521,392.59l0.52,22.176l26.091,7.644l-1.104,-22.363l-25.507,-7.457Z" style="fill:#f9c5a1;"/><path id="viereck13" serif:id="viereck" d="M683.16,83.081l-0.52,-22.175l-26.091,-7.645l1.104,22.364l25.507,7.456Z" style="fill:#ea5b0c;"/><path id="viereck14" serif:id="viereck" d="M97.352,159.514l0.52,-22.176l26.091,-7.644l-1.104,22.363l-25.507,7.457Z" style="fill:#ea5b0c;"/><path id="viereck15" serif:id="viereck" d="M920.143,117.246l-0.519,-22.176l-26.092,-7.645l1.104,22.364l25.507,7.457Z" style="fill:#f9c5a1;"/><path id="viereck16" serif:id="viereck" d="M920.975,318.316l-0.52,22.175l-26.091,7.645l1.104,-22.364l25.507,-7.456Z" style="fill:#ea5b0c;"/><path id="viereck17" serif:id="viereck" d="M151.349,355.238l0.52,22.176l26.091,7.645l-1.104,-22.364l-25.507,-7.457Z" style="fill:#f9c5a1;"/><path id="viereck18" serif:id="viereck" d="M240.894,340.728l0.52,22.175l26.091,7.645l-1.104,-22.363l-25.507,-7.457Z" style="fill:#ea5b0c;"/><path id="viereck19" serif:id="viereck" d="M789.577,94.528l-0.52,-22.175l-26.091,-7.645l1.104,22.363l25.507,7.457Z" style="fill:#ea5b0c;"/><path id="viereck20" serif:id="viereck" d="M442.002,346.35l0.52,22.176l26.091,7.644l-1.104,-22.363l-25.507,-7.457Z" style="fill:#ea5b0c;"/><path id="viereck21" serif:id="viereck" d="M593.789,98.601l-0.519,-22.175l-26.092,-7.645l1.104,22.363l25.507,7.457Z" style="fill:#f9c5a1;"/><path id="viereck22" serif:id="viereck" d="M529.715,407.5l0.52,22.176l26.091,7.644l-1.104,-22.363l-25.507,-7.457Z" style="fill:#fef2ea;"/><path id="viereck23" serif:id="viereck" d="M498.966,68.171l-0.52,-22.175l-26.091,-7.645l1.104,22.364l25.507,7.456Z" style="fill:#ea5b0c;"/><path id="viereck24" serif:id="viereck" d="M648.164,373.883l0.52,22.175l26.091,7.645l-1.104,-22.363l-25.507,-7.457Z" style="fill:#f9c5a1;"/><path id="viereck25" serif:id="viereck" d="M396.397,94.528l-0.52,-22.175l-26.091,-7.645l1.104,22.363l25.507,7.457Z" style="fill:#ea5b0c;"/><path id="viereck26" serif:id="viereck" d="M748.07,394.459l0.52,22.176l26.091,7.644l-1.104,-22.363l-25.507,-7.457Z" style="fill:#ea5b0c;"/><path id="viereck27" serif:id="viereck" d="M280.611,81.213l-0.52,-22.176l-26.091,-7.644l1.104,22.363l25.507,7.457Z" style="fill:#f9c5a1;"/><path id="viereck28" serif:id="viereck" d="M54.078,228.217l0.52,-22.175l26.091,-7.645l-1.104,22.364l-25.507,7.456Z" style="fill:#f9c5a1;"/><path id="viereck29" serif:id="viereck" d="M963.417,185.949l-0.52,-22.175l-26.091,-7.645l1.104,22.363l25.507,7.457Z" style="fill:#ea5b0c;"/><path id="viereck30" serif:id="viereck" d="M983.762,254.488l-0.519,22.176l-26.092,7.644l1.104,-22.363l25.507,-7.457Z" style="fill:#f9c5a1;"/><path id="viereck31" serif:id="viereck" d="M73.962,284.308l0.52,22.176l26.091,7.645l-1.104,-22.364l-25.507,-7.457Z" style="fill:#ea5b0c;"/></g></svg>